<?xml version="1.0" standalone="no"?>
<!DOCTYPE svg PUBLIC "-//W3C//DTD SVG 20010904//EN"
 "http://www.w3.org/TR/2001/REC-SVG-20010904/DTD/svg10.dtd">
<svg version="1.0" xmlns="http://www.w3.org/2000/svg"
 width="400.000000pt" height="400.000000pt" viewBox="0 0 400.000000 400.000000"
 preserveAspectRatio="xMidYMid meet">
<metadata>
Created by potrace 1.11, written by Peter Selinger 2001-2013
</metadata>
<g transform="translate(0.000000,400.000000) scale(0.100000,-0.100000)"
fill="#000000" stroke="none">
<path d="M976 3985 c4 -8 11 -15 16 -15 6 0 5 6 -2 15 -7 8 -14 15 -16 15 -2
0 -1 -7 2 -15z"/>
<path d="M2870 3982 c0 -10 6 -24 13 -31 10 -11 10 -13 0 -7 -7 4 -13 2 -13
-3 0 -6 8 -11 17 -11 15 0 14 -2 -3 -14 -10 -8 -19 -20 -19 -28 -1 -7 -6 -12
-13 -10 -7 1 -12 -3 -12 -9 0 -8 -5 -7 -15 1 -12 10 -19 10 -27 2 -9 -9 -8
-12 4 -12 14 0 26 -15 33 -42 2 -5 4 -9 5 -10 1 -2 4 -29 6 -60 4 -51 2 -58
-18 -69 -13 -7 -26 -17 -30 -23 -6 -8 -8 -8 -8 1 0 12 -37 7 -57 -9 -7 -6 -13
-3 -16 9 -3 10 -4 -1 -3 -25 1 -23 8 -48 14 -54 7 -7 12 -17 12 -23 0 -17 39
-36 91 -44 43 -7 49 -6 49 10 0 10 4 21 10 24 20 12 78 111 83 142 4 18 16 52
27 75 22 45 38 174 20 163 -10 -6 -14 12 -10 53 1 21 -2 22 -69 22 -62 0 -71
-2 -71 -18z m-3 -138 c-3 -3 -12 -4 -19 -1 -8 3 -5 6 6 6 11 1 17 -2 13 -5z
m10 -36 c2 -18 0 -20 -7 -8 -12 18 -13 30 -2 30 4 0 9 -10 9 -22z m-119 -223
c-3 -3 -9 2 -12 12 -6 14 -5 15 5 6 7 -7 10 -15 7 -18z"/>
<path d="M3168 3988 c-3 -7 5 -20 16 -30 21 -17 20 -17 -17 -18 -35 0 -37 -2
-35 -30 2 -33 28 -42 28 -10 0 11 7 20 15 20 8 0 15 -5 15 -10 0 -6 12 -16 28
-22 l27 -12 -27 -4 c-33 -4 -37 -22 -7 -29 16 -4 20 -12 16 -30 -5 -27 15 -43
47 -36 19 4 19 3 -4 -16 -14 -11 -33 -21 -42 -21 -18 0 -34 -18 -24 -27 4 -4
12 -1 18 5 7 7 28 12 47 12 35 0 34 -15 -2 -22 -10 -1 -17 -6 -15 -9 2 -4 -5
-16 -15 -27 -12 -14 -16 -28 -11 -46 5 -23 9 -24 28 -14 19 10 20 10 8 -5 -17
-21 -6 -43 13 -27 11 9 12 7 8 -9 -3 -12 -13 -21 -22 -21 -18 0 -41 -18 -41
-32 0 -4 8 -8 18 -8 11 0 26 -8 36 -19 14 -15 14 -20 3 -29 -8 -7 -17 -9 -21
-5 -4 4 -9 -3 -13 -16 -5 -18 -10 -21 -30 -16 -16 4 -22 2 -18 -5 10 -17 63
-12 74 8 8 14 12 15 22 5 11 -11 10 -13 -4 -13 -9 0 -17 -5 -17 -11 0 -6 9 -8
20 -4 15 5 18 3 14 -8 -3 -8 2 -22 11 -31 14 -13 14 -16 2 -16 -8 0 -20 -6
-26 -14 -9 -11 -8 -15 5 -20 9 -3 19 -4 23 -2 4 3 19 7 34 10 21 3 27 1 27
-12 1 -15 2 -15 11 1 9 16 12 16 26 2 14 -15 14 -17 -3 -31 -11 -9 -14 -13 -7
-10 6 4 14 3 17 -2 5 -8 -46 -43 -60 -42 -4 0 -8 -11 -9 -24 0 -16 6 -26 18
-30 24 -6 13 -26 -16 -27 -17 -1 -15 -3 8 -9 20 -4 38 -2 53 7 22 13 23 13 20
-4 -2 -10 -10 -18 -18 -18 -8 0 -19 -6 -23 -12 -4 -7 -20 -13 -35 -14 -23 0
-24 -2 -8 -8 11 -4 23 -16 26 -27 6 -17 9 -16 37 11 21 22 36 53 51 111 26 96
27 114 6 114 -8 0 -12 5 -9 10 4 6 11 7 17 4 7 -4 8 -2 4 4 -4 6 -2 30 5 52 9
31 9 54 0 107 -7 38 -14 79 -17 93 -2 14 -6 45 -8 70 -14 169 -19 202 -38 213
-20 13 -24 28 -7 25 6 -2 14 3 16 10 3 7 -4 12 -17 12 -13 0 -24 8 -27 20 -5
17 -27 26 -56 21 -5 -1 -6 3 -2 8 3 6 -6 13 -20 17 -14 4 -24 12 -22 18 3 8
-16 12 -58 14 -45 2 -64 -1 -67 -10z m98 -185 c-10 -10 -19 5 -10 18 6 11 8
11 12 0 2 -7 1 -15 -2 -18z m94 -74 c-6 -10 -17 -19 -25 -19 -19 0 -19 6 3 28
21 23 36 17 22 -9z m-55 -28 c-3 -5 -1 -12 5 -16 6 -4 5 -11 -2 -19 -10 -11
-15 -9 -23 8 -8 15 -8 23 -1 28 15 11 28 10 21 -1z"/>
<path d="M3416 3988 c3 -4 0 -8 -7 -8 -7 0 -10 -2 -7 -5 3 -3 17 -1 31 4 20 8
27 7 31 -6 4 -10 2 -14 -8 -10 -8 3 -24 -5 -37 -19 -12 -13 -18 -24 -12 -24 6
0 18 10 27 23 16 21 16 21 11 1 -4 -16 0 -23 15 -27 22 -6 26 3 9 20 -9 9 -3
9 22 3 43 -10 109 -39 90 -40 -8 0 -11 -3 -8 -6 4 -4 13 -2 20 4 8 7 16 9 19
6 3 -2 8 2 11 11 4 9 1 15 -8 15 -9 0 -15 9 -15 21 0 15 5 19 15 15 18 -7 20
8 3 21 -16 13 -48 13 -48 0 0 -5 -11 -7 -25 -5 -14 3 -28 1 -31 -3 -9 -14 -34
-10 -28 4 4 10 -6 14 -35 14 -22 0 -38 -4 -35 -9z"/>
<path d="M3785 3990 c-3 -5 0 -20 7 -32 14 -26 15 -29 17 -60 1 -19 3 -20 11
-8 7 11 10 11 10 2 0 -8 5 -10 13 -5 16 9 -11 -32 -49 -74 -16 -18 -38 -33
-49 -33 -15 0 -17 -2 -6 -9 11 -7 11 -9 0 -14 -10 -4 -9 -6 4 -6 9 -1 17 3 17
8 0 5 12 8 27 5 14 -3 29 0 34 7 10 17 40 3 33 -16 -5 -12 -10 -13 -20 -4 -11
9 -16 6 -23 -12 -7 -19 -4 -26 13 -36 18 -10 18 -12 4 -13 -20 0 -25 -20 -6
-20 6 0 8 -3 5 -7 -4 -3 -17 2 -29 13 -21 18 -22 18 -8 0 13 -16 12 -20 -5
-32 -17 -13 -17 -14 -1 -14 9 0 14 -5 11 -10 -4 -6 -12 -7 -18 -3 -7 4 -6 0 2
-10 12 -15 11 -17 -3 -17 -10 0 -14 -5 -10 -11 4 -8 -4 -9 -27 -4 -22 4 -29 3
-20 -3 10 -7 10 -11 1 -17 -7 -4 -13 1 -17 13 -3 13 -10 18 -19 15 -8 -3 -20
-1 -27 4 -15 12 -41 -13 -44 -42 -2 -17 -1 -17 9 3 13 26 28 28 71 5 31 -16
32 -16 9 -26 -12 -6 -22 -14 -22 -19 0 -4 -6 -8 -14 -8 -12 0 -26 -20 -26 -36
0 -2 11 -4 25 -4 14 0 25 5 25 10 0 15 26 12 40 -5 11 -13 10 -15 -1 -10 -22
8 -102 -9 -107 -23 -2 -6 4 -12 14 -12 16 0 16 -1 -2 -15 -22 -16 -12 -20 16
-5 14 8 18 6 16 -6 -1 -9 -8 -19 -15 -24 -8 -4 -11 -12 -7 -18 3 -6 -2 -13
-13 -17 -11 -3 -22 -12 -25 -20 -4 -12 2 -14 29 -11 20 3 33 1 30 -4 -3 -5 1
-11 7 -14 7 -3 4 -4 -7 -1 -15 4 -21 0 -22 -15 -1 -13 2 -18 10 -13 17 10 106
12 113 2 3 -5 16 -9 30 -9 28 0 33 -26 7 -45 -14 -10 -8 -11 29 -5 41 6 48 4
64 -18 21 -27 79 -56 94 -47 6 4 10 173 10 436 l0 429 -104 0 c-58 0 -108 -4
-111 -10z m55 -170 c0 -5 -5 -10 -11 -10 -5 0 -7 5 -4 10 3 6 8 10 11 10 2 0
4 -4 4 -10z m60 -4 c9 -12 8 -15 -9 -13 -12 1 -21 7 -21 14 0 17 15 16 30 -1z
m-130 -260 c0 -2 -7 -6 -15 -10 -8 -3 -15 -1 -15 4 0 6 7 10 15 10 8 0 15 -2
15 -4z m-18 -33 c-6 -2 -9 -10 -6 -15 4 -7 2 -8 -4 -4 -18 11 -14 26 6 25 10
0 12 -3 4 -6z m238 -123 c0 -5 -4 -10 -10 -10 -5 0 -10 5 -10 10 0 6 5 10 10
10 6 0 10 -4 10 -10z m-263 -126 c-3 -3 -12 -4 -19 -1 -8 3 -5 6 6 6 11 1 17
-2 13 -5z m226 -76 c8 -5 6 -8 -6 -8 -9 0 -26 5 -37 12 -18 12 -18 13 -3 31
17 18 17 17 26 -5 4 -12 13 -26 20 -30z m31 -44 c3 -8 2 -12 -4 -9 -6 3 -10
10 -10 16 0 14 7 11 14 -7z"/>
<path d="M3703 3965 c0 -8 4 -12 9 -9 5 3 6 10 3 15 -9 13 -12 11 -12 -6z"/>
<path d="M660 3940 c-13 -8 -12 -10 3 -10 9 0 17 5 17 10 0 12 -1 12 -20 0z"/>
<path d="M2721 3918 c13 -21 28 -38 32 -38 12 0 -8 33 -34 55 -21 20 -21 19 2
-17z"/>
<path d="M938 3933 c7 -3 16 -2 19 1 4 3 -2 6 -13 5 -11 0 -14 -3 -6 -6z"/>
<path d="M975 3930 c3 -5 8 -10 11 -10 2 0 4 5 4 10 0 6 -5 10 -11 10 -5 0 -7
-4 -4 -10z"/>
<path d="M428 3923 c7 -3 16 -2 19 1 4 3 -2 6 -13 5 -11 0 -14 -3 -6 -6z"/>
<path d="M1010 3926 c0 -2 7 -7 16 -10 8 -3 12 -2 9 4 -6 10 -25 14 -25 6z"/>
<path d="M120 3910 c0 -5 5 -10 11 -10 5 0 7 5 4 10 -3 6 -8 10 -11 10 -2 0
-4 -4 -4 -10z"/>
<path d="M3080 3910 c0 -5 5 -10 11 -10 5 0 7 5 4 10 -3 6 -8 10 -11 10 -2 0
-4 -4 -4 -10z"/>
<path d="M370 3906 c0 -3 9 -10 20 -16 11 -6 20 -8 20 -6 0 3 -9 10 -20 16
-11 6 -20 8 -20 6z"/>
<path d="M1054 3883 c3 -19 9 -27 19 -25 8 1 17 -4 21 -13 3 -8 13 -15 23 -15
15 0 16 -2 3 -10 -13 -8 -13 -10 2 -10 28 0 31 19 4 26 -32 8 -43 34 -15 34
12 0 19 5 16 13 -2 6 -10 11 -16 10 -6 -2 -11 2 -11 8 0 8 -5 8 -15 -1 -10 -9
-15 -9 -15 -1 0 6 -4 11 -9 11 -5 0 -8 -12 -7 -27z"/>
<path d="M1315 3900 c-3 -5 -13 -6 -23 -3 -13 4 -13 2 3 -10 11 -8 17 -18 13
-22 -13 -13 -76 -22 -92 -13 -10 6 -16 5 -16 -2 0 -6 -5 -8 -12 -4 -7 4 -8 3
-4 -4 4 -7 14 -12 22 -12 8 0 14 -7 14 -15 0 -8 4 -15 10 -15 5 0 7 7 4 15 -7
18 7 20 25 3 11 -11 13 -10 7 0 -4 7 -1 15 9 18 22 9 29 -1 16 -24 -9 -18 -7
-20 23 -24 28 -3 33 -1 31 14 -2 10 7 26 21 37 14 11 20 22 14 26 -5 3 -10 1
-10 -4 0 -6 -7 -11 -15 -11 -8 0 -15 7 -15 16 0 9 -5 13 -12 9 -7 -4 -5 0 5 8
15 12 15 15 3 20 -9 4 -18 2 -21 -3z m15 -65 c7 -9 8 -15 2 -15 -5 0 -12 7
-16 15 -3 8 -4 15 -2 15 2 0 9 -7 16 -15z m7 -31 c-3 -3 -12 -4 -19 -1 -8 3
-5 6 6 6 11 1 17 -2 13 -5z"/>
<path d="M437 3887 c-4 -10 2 -13 19 -9 13 2 21 8 18 13 -8 14 -31 11 -37 -4z"/>
<path d="M1030 3890 c0 -5 5 -10 11 -10 5 0 7 5 4 10 -3 6 -8 10 -11 10 -2 0
-4 -4 -4 -10z"/>
<path d="M2760 3849 c0 -11 4 -18 9 -15 9 6 7 -37 -4 -54 -3 -5 -11 -7 -17 -4
-7 4 -8 2 -4 -4 4 -7 2 -12 -3 -12 -6 0 -11 -4 -11 -10 0 -16 27 -11 34 6 3 9
13 14 21 10 11 -4 14 2 14 22 -3 57 -39 115 -39 61z"/>
<path d="M3570 3850 c-8 -5 -11 -12 -7 -16 4 -4 13 -2 19 4 15 15 7 24 -12 12z"/>
<path d="M2714 3832 c-12 -20 -7 -55 7 -46 5 3 7 10 4 15 -4 5 -1 9 4 9 13 0
15 26 3 34 -4 2 -13 -3 -18 -12z"/>
<path d="M1385 3830 c4 -6 11 -8 16 -5 14 9 11 15 -7 15 -8 0 -12 -5 -9 -10z"/>
<path d="M1455 3829 c-4 -6 -4 -13 -1 -16 3 -4 6 -1 6 5 0 6 8 13 18 15 15 4
15 5 0 6 -9 0 -20 -4 -23 -10z"/>
<path d="M2681 3824 c0 -11 3 -14 6 -6 3 7 2 16 -1 19 -3 4 -6 -2 -5 -13z"/>
<path d="M3756 3823 c-6 -14 -5 -15 5 -6 7 7 10 15 7 18 -3 3 -9 -2 -12 -12z"/>
<path d="M1070 3810 c-8 -5 -12 -11 -9 -14 2 -3 11 -1 19 4 8 5 12 11 9 14 -2
3 -11 1 -19 -4z"/>
<path d="M1175 3800 c-3 -5 -2 -10 4 -10 5 0 13 5 16 10 3 6 2 10 -4 10 -5 0
-13 -4 -16 -10z"/>
<path d="M3180 3800 c0 -5 7 -10 16 -10 8 0 12 5 9 10 -3 6 -10 10 -16 10 -5
0 -9 -4 -9 -10z"/>
<path d="M3548 3803 c6 -2 18 -2 25 0 6 3 1 5 -13 5 -14 0 -19 -2 -12 -5z"/>
<path d="M2806 3787 c3 -10 9 -15 12 -12 3 3 0 11 -7 18 -10 9 -11 8 -5 -6z"/>
<path d="M2671 3764 c0 -11 3 -14 6 -6 3 7 2 16 -1 19 -3 4 -6 -2 -5 -13z"/>
<path d="M3570 3769 c0 -5 9 -9 20 -9 11 0 20 2 20 4 0 2 -9 6 -20 9 -11 3
-20 1 -20 -4z"/>
<path d="M106 3761 c-4 -6 -2 -11 4 -11 6 0 8 -6 4 -12 -6 -10 -4 -10 7 0 9 9
10 15 2 23 -8 8 -13 8 -17 0z"/>
<path d="M1094 3755 c-4 -9 -13 -14 -21 -11 -8 3 -11 1 -8 -4 8 -13 18 -13 40
3 12 10 15 16 6 21 -6 4 -14 0 -17 -9z"/>
<path d="M836 3748 c3 -5 10 -6 15 -3 13 9 11 12 -6 12 -8 0 -12 -4 -9 -9z"/>
<path d="M1276 3749 c3 -6 1 -15 -6 -19 -8 -5 -3 -7 13 -7 19 0 23 4 20 18 -3
11 -12 19 -20 19 -8 0 -11 -5 -7 -11z"/>
<path d="M2702 3740 c0 -14 2 -19 5 -12 2 6 2 18 0 25 -3 6 -5 1 -5 -13z"/>
<path d="M2775 3741 c-10 -17 12 -21 25 -6 10 12 10 15 -3 15 -9 0 -18 -4 -22
-9z"/>
<path d="M3150 3731 c0 -12 5 -21 10 -21 6 0 10 6 10 14 0 8 -4 18 -10 21 -5
3 -10 -3 -10 -14z"/>
<path d="M3710 3741 c0 -5 7 -15 17 -22 15 -13 15 -12 4 9 -12 23 -21 28 -21
13z"/>
<path d="M505 3729 c-11 -16 -1 -19 13 -3 7 8 8 14 3 14 -5 0 -13 -5 -16 -11z"/>
<path d="M84 3702 c-8 -5 -7 -16 5 -38 13 -24 21 -29 36 -23 19 7 19 7 2 14
-15 6 -16 10 -5 16 10 7 8 11 -9 15 -13 4 -20 10 -17 15 6 11 3 11 -12 1z"/>
<path d="M695 3701 c6 -11 4 -13 -9 -8 -9 4 -15 3 -11 -2 3 -5 -1 -11 -7 -14
-9 -3 -7 -7 5 -12 12 -5 24 -2 33 7 13 13 13 16 -2 29 -15 12 -17 12 -9 0z"/>
<path d="M1097 3703 c-4 -3 -7 -11 -7 -17 0 -6 5 -5 12 2 6 6 9 14 7 17 -3 3
-9 2 -12 -2z"/>
<path d="M3758 3703 c6 -2 18 -2 25 0 6 3 1 5 -13 5 -14 0 -19 -2 -12 -5z"/>
<path d="M400 3693 c0 -5 14 -8 31 -9 20 -1 26 2 17 7 -16 11 -48 12 -48 2z"/>
<path d="M921 3677 c-7 -17 -3 -27 18 -44 29 -25 41 -28 41 -12 0 5 -4 7 -10
4 -6 -4 -10 6 -10 22 0 22 2 25 10 13 9 -13 10 -13 10 0 0 8 -12 20 -26 27
-22 10 -26 9 -33 -10z m29 -7 c0 -5 -5 -10 -11 -10 -5 0 -7 5 -4 10 3 6 8 10
11 10 2 0 4 -4 4 -10z"/>
<path d="M3105 3690 c-7 -12 2 -12 30 0 19 8 19 9 -2 9 -12 1 -25 -3 -28 -9z"/>
<path d="M3185 3680 c-3 -5 1 -10 10 -10 9 0 13 5 10 10 -3 6 -8 10 -10 10 -2
0 -7 -4 -10 -10z"/>
<path d="M1815 3650 c-207 -18 -336 -36 -270 -39 193 -9 208 -14 160 -59 -16
-15 -22 -18 -14 -8 13 18 12 19 -30 13 -24 -3 -47 -10 -50 -14 -3 -5 -14 -12
-23 -16 -20 -7 -23 -23 -7 -33 7 -4 -5 -12 -27 -20 -21 -7 -41 -11 -46 -8 -4
3 -8 -1 -8 -8 0 -9 -3 -9 -10 2 -8 13 -10 13 -10 -1 0 -9 -9 -24 -20 -34 -20
-18 -20 -17 -20 10 0 22 3 25 14 16 11 -9 15 -7 19 8 3 14 11 19 26 16 12 -2
21 0 21 6 0 5 -8 10 -17 10 -76 5 -119 -5 -152 -38 -13 -12 -29 -23 -36 -23
-17 0 -64 -39 -48 -40 7 0 10 -7 6 -16 -5 -14 -2 -16 23 -10 16 4 35 7 41 8
10 1 10 5 1 17 -7 9 -9 13 -4 9 4 -3 19 0 33 7 15 8 31 11 36 8 5 -3 13 1 18
8 6 9 9 10 9 2 0 -6 -5 -15 -10 -18 -6 -4 -7 -12 -3 -18 4 -7 -2 -5 -12 3 -15
12 -17 12 -10 1 6 -11 3 -13 -13 -9 -15 4 -23 1 -27 -12 -5 -16 -63 -46 -122
-65 -24 -7 -28 3 -25 48 1 9 -1 17 -5 17 -15 0 -63 -66 -58 -79 4 -10 -2 -12
-24 -8 -18 4 -33 2 -37 -5 -4 -7 -11 -4 -17 8 -16 27 -17 46 -4 41 17 -6 47
11 47 27 0 8 -7 19 -15 26 -13 11 -14 10 -10 -2 4 -10 -4 -19 -24 -28 -33 -13
-55 -6 -47 16 3 7 -3 18 -12 23 -9 6 -13 11 -9 11 5 0 1 7 -7 16 -9 8 -20 12
-26 9 -6 -4 -9 -3 -8 2 2 4 -2 9 -7 11 -6 1 -10 -3 -10 -10 0 -6 -6 -13 -12
-15 -8 -3 -15 11 -19 36 -6 38 -24 68 -24 41 0 -6 -4 -9 -8 -6 -5 3 -16 -4
-25 -14 -15 -18 -15 -19 4 -25 11 -4 18 -9 15 -12 -11 -11 22 -31 48 -29 14 2
26 1 26 -2 0 -8 -54 -52 -72 -58 -16 -5 -22 -44 -6 -44 4 0 8 -5 8 -11 0 -5
-4 -7 -10 -4 -5 3 -10 1 -10 -6 0 -7 10 -9 24 -7 22 5 23 3 14 -24 l-10 -28
-18 22 c-10 13 -19 28 -21 33 -5 17 -51 36 -71 30 -16 -6 -16 -8 -3 -21 24
-25 18 -32 -20 -24 -31 7 -34 6 -25 -10 5 -9 6 -21 2 -25 -4 -5 -1 -5 6 -1 7
4 10 12 7 17 -4 5 -2 9 3 9 6 0 12 -7 16 -15 3 -8 12 -15 21 -15 8 0 15 -4 15
-10 0 -5 -5 -9 -11 -7 -6 1 -14 -4 -16 -11 -3 -9 3 -12 18 -11 39 3 59 0 59
-12 0 -5 -5 -7 -12 -3 -8 5 -9 2 -4 -11 5 -13 3 -15 -6 -8 -22 18 -43 11 -44
-14 -1 -14 3 -22 10 -20 6 3 10 9 9 15 -1 5 7 8 18 5 14 -4 17 -9 9 -18 -13
-15 -37 -14 -68 3 -30 17 -42 7 -16 -13 18 -13 18 -14 1 -15 -10 0 -16 -4 -13
-9 3 -5 -6 -12 -19 -15 -14 -4 -23 -11 -20 -17 4 -6 19 -2 39 11 42 25 46 25
46 -1 0 -12 5 -19 12 -17 7 3 19 -1 26 -9 17 -17 21 -17 61 8 27 16 32 24 26
42 -4 12 -7 30 -6 40 0 15 -2 16 -15 2 -17 -16 -34 -12 -34 8 0 8 3 8 9 -1 6
-11 10 -10 15 4 4 10 1 21 -6 26 -9 5 -10 8 -1 8 6 0 15 -4 18 -10 3 -5 14
-10 24 -10 10 0 24 -7 31 -15 7 -8 17 -12 23 -8 5 3 7 1 3 -5 -3 -6 3 -13 14
-17 21 -7 43 2 36 14 -3 4 4 8 15 8 16 2 19 -5 19 -42 0 -31 -5 -47 -17 -55
-17 -11 -17 -11 0 -6 13 4 17 -1 17 -23 0 -46 10 -64 26 -50 9 8 14 8 14 1 0
-6 -5 -14 -10 -17 -16 -10 -2 -24 18 -18 14 3 17 12 14 34 -3 19 0 29 8 29 9
0 10 3 1 13 -13 16 -5 28 14 21 8 -4 16 6 20 26 5 24 10 29 20 20 10 -8 19 -3
39 20 14 18 26 38 26 46 0 9 4 13 9 10 24 -15 51 18 64 79 3 14 5 10 6 -10 l2
-30 24 28 c14 15 25 25 25 21 0 -3 7 -1 15 6 8 7 15 9 15 6 0 -4 9 -2 20 4 11
6 18 15 15 21 -4 5 1 9 9 9 9 0 15 3 15 8 -3 18 2 26 9 15 6 -9 18 -3 43 24
19 20 27 32 19 28 -12 -7 -13 -6 -3 6 14 18 95 19 99 1 1 -7 0 -8 -3 -2 -2 5
-9 10 -14 10 -6 0 -7 -5 -4 -10 3 -6 0 -13 -9 -16 -8 -3 -17 -12 -20 -20 -3
-9 -1 -12 4 -9 6 3 10 -1 10 -10 0 -9 -3 -14 -7 -12 -5 3 -9 -11 -10 -30 -1
-25 2 -33 12 -30 9 4 11 -1 8 -16 -5 -18 -3 -20 8 -9 7 6 22 12 33 12 20 0 20
0 0 15 -10 8 -14 15 -7 15 8 0 11 11 8 30 -2 16 1 33 6 36 6 3 8 13 5 21 -3 8
-1 11 4 8 6 -3 10 1 10 10 0 9 -4 13 -10 10 -5 -3 -10 1 -10 9 0 10 6 13 16 9
12 -4 14 -14 10 -35 -4 -19 -2 -27 5 -22 8 4 8 0 0 -14 -6 -11 -11 -33 -11
-47 l0 -27 20 23 c16 20 19 21 20 7 0 -10 -4 -18 -9 -18 -5 0 -11 -12 -13 -27
-2 -19 -9 -29 -24 -31 -46 -7 -1 -103 55 -117 14 -4 41 -18 59 -32 18 -14 36
-23 38 -20 3 3 21 -1 40 -9 31 -13 35 -13 41 3 3 10 8 21 10 25 2 4 -3 5 -12
2 -11 -4 -14 -2 -9 9 3 10 -2 18 -15 22 -12 3 -21 11 -21 16 0 6 6 7 13 3 9
-5 9 -4 1 5 -13 14 -7 56 11 71 10 8 13 6 11 -7 0 -10 -5 -21 -9 -24 -4 -3 -5
-13 -1 -23 5 -13 9 -14 21 -4 11 9 16 9 24 -3 6 -10 9 -11 9 -1 0 8 8 5 22 -8
30 -28 38 -25 38 12 0 30 1 31 14 12 14 -18 15 -18 22 11 5 17 7 36 6 43 -4
18 28 27 39 11 5 -8 9 -10 9 -5 0 5 6 4 13 -2 9 -8 20 -6 41 7 15 10 27 21 26
25 0 3 2 22 6 42 5 25 9 32 15 22 7 -10 9 -8 9 7 1 19 1 19 11 2 10 -18 11
-18 25 0 9 12 13 13 14 5 0 -7 7 -20 15 -28 13 -14 16 -13 24 8 6 13 10 18 10
13 1 -6 18 -11 39 -11 42 -1 137 -61 147 -93 3 -10 16 -31 30 -47 13 -15 22
-31 20 -34 -3 -4 11 -16 30 -26 19 -10 34 -23 32 -29 -2 -5 0 -14 5 -20 5 -5
17 -21 28 -34 11 -13 21 -39 21 -58 1 -18 3 -37 4 -43 1 -5 3 -15 4 -21 0 -5
5 -7 11 -4 5 3 7 0 4 -8 -3 -8 -1 -18 5 -22 6 -3 11 -15 11 -26 0 -10 5 -19
11 -19 8 0 8 -4 0 -14 -8 -9 -8 -21 -1 -40 5 -14 6 -26 1 -26 -5 0 -12 11 -15
25 -4 14 -11 23 -16 20 -6 -3 -10 -1 -10 4 0 6 -4 11 -9 11 -11 0 -8 -46 2
-57 11 -10 8 -43 -3 -43 -5 0 -10 -5 -10 -11 0 -5 5 -7 10 -4 6 3 10 2 10 -4
0 -5 -4 -13 -10 -16 -9 -5 31 -91 49 -105 17 -13 69 -150 69 -180 0 -14 9 -52
20 -85 10 -33 23 -75 26 -93 4 -17 11 -32 15 -32 12 0 31 23 31 39 0 8 11 29
25 47 14 18 25 36 25 41 0 4 11 18 24 30 15 15 22 30 19 45 -4 19 2 26 28 35
17 7 36 10 40 7 5 -3 9 2 9 11 0 9 4 14 9 11 5 -3 14 1 21 9 7 8 21 15 31 15
24 0 33 16 13 24 -22 8 -26 8 -19 -4 6 -9 -8 -14 -27 -11 -5 0 -8 -4 -8 -10 0
-8 -5 -7 -15 1 -13 11 -18 10 -29 -5 -21 -29 -44 -27 -41 4 2 25 -15 154 -30
231 -13 64 -15 75 -21 125 -4 29 -15 58 -26 68 -10 10 -16 22 -13 27 3 5 -10
35 -30 68 -41 71 -80 174 -136 360 -43 143 -63 192 -79 192 -6 0 -3 -11 6 -25
14 -22 15 -30 4 -50 -7 -14 -11 -26 -9 -27 2 -2 13 -8 24 -14 22 -12 67 -135
63 -169 -3 -17 -9 -14 -43 22 -22 22 -69 59 -105 82 -36 22 -75 51 -88 63
l-23 23 42 12 c23 7 44 14 45 16 2 2 -33 2 -77 -1 -69 -4 -83 -2 -91 12 -5 9
-15 14 -21 10 -7 -3 -5 1 4 8 13 11 14 17 5 29 -17 24 -57 31 -71 12 -11 -15
-18 -15 -85 1 -46 12 -76 14 -82 8 -6 -6 -1 -8 15 -5 14 3 28 0 31 -6 13 -21
-19 -21 -74 -2 -30 11 -75 27 -100 36 -25 9 -56 26 -69 38 l-25 22 22 -31 c18
-27 20 -38 13 -75 -8 -38 -9 -40 -11 -14 -1 17 -2 35 -1 41 1 6 -6 17 -14 24
-8 7 -15 10 -15 7 0 -3 -12 1 -27 8 -18 10 -31 11 -37 5 -6 -6 -25 -10 -43
-10 -24 0 -31 -4 -27 -14 3 -8 1 -16 -3 -19 -12 -8 -9 32 5 65 9 21 20 28 57
33 25 4 54 5 65 2 11 -3 20 -2 20 3 0 14 -64 18 -111 6 -34 -9 -52 -9 -73 0
-25 10 -16 12 80 18 60 4 127 9 149 12 39 4 40 4 8 -6 -18 -6 -35 -16 -39 -22
-5 -8 -2 -9 11 -4 10 3 47 14 81 22 35 9 61 20 58 25 -3 5 -8 8 -12 8 -4 -1
-102 -10 -217 -19z m-125 -184 c-11 -30 -41 -66 -54 -66 -5 0 2 12 16 28 14
15 28 35 31 45 4 9 9 17 11 17 3 0 1 -11 -4 -24z m80 11 c0 -8 -9 -22 -20 -32
-11 -10 -17 -22 -13 -28 3 -6 1 -7 -5 -3 -6 4 -8 14 -5 24 6 15 5 15 -10 3
-18 -15 -33 -9 -23 8 4 5 15 8 26 6 12 -2 21 3 25 16 7 22 25 26 25 6z m-206
-20 c-5 -15 -74 -51 -81 -43 -3 2 6 10 19 17 12 8 32 19 43 25 11 7 21 12 22
13 1 1 0 -5 -3 -12z m631 3 c13 -5 14 -9 5 -9 -8 0 -24 4 -35 9 -13 5 -14 9
-5 9 8 0 24 -4 35 -9z m-495 -55 c-7 -8 -17 -15 -23 -15 -6 0 -2 7 9 15 25 19
30 19 14 0z m-120 -15 c-8 -5 -19 -10 -25 -10 -5 0 -3 5 5 10 8 5 20 10 25 10
6 0 3 -5 -5 -10z m370 -76 c0 -6 -7 -17 -15 -24 -8 -7 -13 -16 -10 -20 3 -5 0
-10 -7 -12 -10 -4 -10 -10 -1 -31 11 -23 10 -27 -2 -27 -8 0 -15 -4 -15 -8 0
-17 -39 -10 -45 8 -3 10 -12 21 -20 24 -18 6 -9 36 11 36 21 0 17 20 -3 21
-12 0 -9 4 8 10 20 8 26 15 22 30 -4 15 0 22 16 26 12 3 18 10 14 17 -3 6 6 0
20 -13 15 -14 27 -30 27 -37z m-753 -20 c-3 -3 -12 -4 -19 -1 -8 3 -5 6 6 6
11 1 17 -2 13 -5z m775 -46 c6 -13 5 -18 -5 -18 -9 0 -14 12 -14 33 -1 17 2
25 4 17 3 -8 10 -23 15 -32z m-1008 20 c-5 -8 -2 -9 10 -5 16 6 16 5 2 -15
-18 -26 -45 -32 -53 -12 -8 23 5 44 27 44 14 0 19 -4 14 -12z m164 -33 c7 -26
7 -35 -1 -35 -7 0 -3 -8 8 -17 16 -13 17 -15 3 -10 -10 4 -18 2 -18 -3 0 -6
-10 -10 -22 -10 -23 1 -23 1 -3 16 20 15 20 15 1 30 -12 8 -15 14 -7 14 10 0
12 9 8 30 -9 42 17 29 31 -15z m-280 1 c7 1 8 0 2 -3 -5 -2 -8 -9 -5 -14 4 -5
0 -6 -8 -3 -8 3 -18 0 -23 -7 -4 -8 -3 -10 4 -5 7 4 12 2 12 -3 0 -19 -19 -12
-31 10 -9 17 -8 23 2 30 8 5 10 9 6 9 -5 0 -5 5 -1 11 4 8 11 5 18 -8 6 -11
17 -19 24 -17z m359 19 c0 -8 -4 -15 -8 -15 -4 0 -9 7 -13 15 -3 9 0 15 8 15
7 0 13 -7 13 -15z m896 -25 c10 -16 15 -30 10 -30 -13 0 -53 47 -46 54 11 11
18 6 36 -24z m-1197 -34 c-7 -27 -30 -27 -40 0 -3 8 -2 13 3 10 5 -3 14 1 21
9 17 20 24 12 16 -19z m177 -69 c8 -6 7 -7 -3 -4 -9 2 -16 17 -16 38 -2 31 -1
31 3 4 3 -16 10 -34 16 -38z m-106 21 c2 -22 1 -22 -26 1 l-22 19 24 -2 c14 0
24 -8 24 -18z m680 7 c0 -8 -4 -12 -9 -9 -4 3 -8 9 -8 15 0 5 4 9 8 9 5 0 9
-7 9 -15z m-525 -17 c-6 -6 -19 -7 -29 -3 -17 7 -17 8 2 15 24 9 41 2 27 -12z
m-51 -111 c-10 -9 -11 -8 -5 6 3 10 9 15 12 12 3 -3 0 -11 -7 -18z m1653 -333
c3 -8 2 -12 -4 -9 -6 3 -10 10 -10 16 0 14 7 11 14 -7z"/>
<path d="M1900 3324 c0 -8 5 -12 10 -9 6 3 10 10 10 16 0 5 -4 9 -10 9 -5 0
-10 -7 -10 -16z"/>
<path d="M1865 3210 c3 -5 8 -10 11 -10 2 0 4 5 4 10 0 6 -5 10 -11 10 -5 0
-7 -4 -4 -10z"/>
<path d="M430 3650 c0 -5 5 -10 11 -10 5 0 7 5 4 10 -3 6 -8 10 -11 10 -2 0
-4 -4 -4 -10z"/>
<path d="M1105 3650 c-3 -6 1 -7 9 -4 18 7 21 14 7 14 -6 0 -13 -4 -16 -10z"/>
<path d="M1235 3650 c-3 -5 -1 -10 4 -10 6 0 11 5 11 10 0 6 -2 10 -4 10 -3 0
-8 -4 -11 -10z"/>
<path d="M3710 3640 c-9 -6 -10 -10 -3 -10 6 0 15 5 18 10 8 12 4 12 -15 0z"/>
<path d="M2265 3621 l50 -16 -65 -5 c-61 -5 -63 -6 -37 -17 15 -7 43 -13 60
-13 18 0 50 -9 71 -20 22 -10 43 -17 47 -14 5 3 6 -2 3 -11 -5 -11 -2 -14 12
-8 12 4 15 3 10 -6 -4 -6 -4 -10 1 -9 16 4 58 -14 81 -36 21 -19 25 -19 35 -5
7 9 17 14 23 12 6 -2 14 3 17 12 4 9 1 15 -7 15 -7 0 -28 13 -47 29 -18 16
-59 43 -91 60 -58 32 -93 43 -48 15 l25 -15 -24 7 c-44 12 -84 31 -73 35 7 2
-12 5 -41 5 l-52 2 50 -17z"/>
<path d="M1157 3605 c-4 -8 -3 -16 1 -19 4 -3 9 4 9 15 2 23 -3 25 -10 4z"/>
<path d="M3680 3616 c0 -2 7 -6 15 -10 8 -3 15 -1 15 4 0 6 -7 10 -15 10 -8 0
-15 -2 -15 -4z"/>
<path d="M891 3594 c-24 -12 -24 -13 10 -16 34 -4 34 -4 9 -15 -14 -7 -18 -12
-10 -12 8 0 26 6 40 14 18 10 20 14 8 15 -9 0 -21 6 -25 13 -6 11 -13 11 -32
1z"/>
<path d="M1350 3596 c0 -2 7 -9 15 -16 12 -10 15 -10 15 4 0 9 -7 16 -15 16
-8 0 -15 -2 -15 -4z"/>
<path d="M3217 3576 c-4 -10 -5 -21 -2 -24 9 -9 17 6 13 25 -3 17 -4 17 -11
-1z"/>
<path d="M422 3573 c-6 -2 -10 -9 -6 -14 3 -5 -5 -9 -18 -10 -23 -1 -23 -1 2
-8 17 -5 29 -3 36 7 12 17 30 0 19 -18 -3 -5 -2 -10 4 -10 5 0 13 -9 16 -21 8
-23 31 -20 29 5 -1 9 3 16 10 16 6 0 4 5 -4 10 -12 8 -13 12 -2 19 10 6 6 10
-15 15 -15 4 -35 9 -43 11 -8 2 -21 1 -28 -2z"/>
<path d="M1166 3554 c-9 -8 -16 -21 -15 -27 0 -8 2 -8 6 1 2 6 10 9 16 5 7 -3
9 -3 5 2 -4 4 -3 14 3 22 16 18 4 16 -15 -3z"/>
<path d="M337 3539 c7 -7 15 -10 18 -7 3 3 -2 9 -12 12 -14 6 -15 5 -6 -5z"/>
<path d="M1124 3537 c4 -13 -1 -19 -22 -23 -20 -4 -27 -11 -27 -30 0 -16 4
-23 14 -19 9 4 12 -1 8 -15 -7 -27 2 -25 12 3 5 13 5 25 -1 28 -6 4 -1 15 10
25 16 15 18 23 11 34 -9 12 -10 12 -5 -3z"/>
<path d="M3667 3539 c7 -7 15 -10 18 -7 3 3 -2 9 -12 12 -14 6 -15 5 -6 -5z"/>
<path d="M84 3524 c9 -8 16 -22 16 -30 0 -8 4 -14 8 -14 5 0 8 10 6 23 -1 12
-3 25 -3 30 -1 4 -10 7 -22 7 -19 0 -19 -1 -5 -16z"/>
<path d="M805 3530 c3 -5 8 -10 11 -10 2 0 4 5 4 10 0 6 -5 10 -11 10 -5 0 -7
-4 -4 -10z"/>
<path d="M355 3512 c9 -9 76 -12 70 -3 -3 5 -21 9 -41 9 -19 0 -33 -3 -29 -6z"/>
<path d="M450 3500 c0 -5 5 -10 11 -10 5 0 7 5 4 10 -3 6 -8 10 -11 10 -2 0
-4 -4 -4 -10z"/>
<path d="M1219 3483 c-13 -16 -12 -17 4 -4 9 7 17 15 17 17 0 8 -8 3 -21 -13z"/>
<path d="M590 3479 c0 -6 -7 -9 -15 -5 -27 10 -46 -4 -35 -25 6 -11 17 -16 25
-12 11 4 13 9 5 18 -8 9 -4 11 15 7 18 -3 25 0 25 12 0 9 -4 16 -10 16 -5 0
-10 -5 -10 -11z"/>
<path d="M240 3471 c0 -6 4 -13 10 -16 6 -3 7 1 4 9 -7 18 -14 21 -14 7z"/>
<path d="M635 3470 c-3 -6 1 -7 9 -4 18 7 21 14 7 14 -6 0 -13 -4 -16 -10z"/>
<path d="M971 3464 c0 -11 3 -14 6 -6 3 7 2 16 -1 19 -3 4 -6 -2 -5 -13z"/>
<path d="M1040 3471 c0 -6 4 -13 10 -16 6 -3 7 1 4 9 -7 18 -14 21 -14 7z"/>
<path d="M281 3454 c0 -11 3 -14 6 -6 3 7 2 16 -1 19 -3 4 -6 -2 -5 -13z"/>
<path d="M318 3463 c7 -3 16 -2 19 1 4 3 -2 6 -13 5 -11 0 -14 -3 -6 -6z"/>
<path d="M1160 3449 c0 -13 -6 -19 -17 -17 -12 2 -18 -4 -19 -20 -1 -22 2 -21
37 14 22 21 39 38 39 39 0 0 -9 1 -20 2 -14 1 -20 -4 -20 -18z"/>
<path d="M366 3435 c4 -8 11 -15 16 -15 6 0 5 6 -2 15 -7 8 -14 15 -16 15 -2
0 -1 -7 2 -15z"/>
<path d="M1028 3416 c3 -17 7 -24 10 -16 3 8 9 17 13 20 5 3 0 11 -10 17 -15
10 -17 7 -13 -21z"/>
<path d="M0 3365 c0 -37 4 -65 10 -65 6 0 10 6 10 14 0 7 10 21 23 30 12 9 17
14 10 11 -6 -3 -14 -1 -18 4 -3 6 5 8 20 5 14 -2 25 0 25 6 0 5 -9 10 -21 10
-11 0 -17 5 -14 10 3 6 1 10 -4 10 -6 0 -11 -4 -11 -10 0 -5 -5 -10 -11 -10
-7 0 -9 10 -7 25 3 14 1 25 -3 25 -5 0 -9 -29 -9 -65z"/>
<path d="M708 3418 c14 -14 16 -32 2 -23 -6 3 -7 -1 -4 -10 5 -11 13 -13 28
-8 11 4 33 6 47 6 16 -1 26 3 26 13 0 8 -7 13 -16 12 -9 -2 -15 3 -13 11 2 11
-3 10 -23 -3 -22 -15 -26 -15 -31 -1 -3 8 -11 15 -17 15 -7 0 -7 -4 1 -12z"/>
<path d="M827 3389 c4 -13 8 -18 11 -10 2 7 -1 18 -6 23 -8 8 -9 4 -5 -13z"/>
<path d="M542 3381 c-11 -7 -11 -9 1 -14 9 -3 18 1 21 9 6 16 -2 18 -22 5z"/>
<path d="M270 3366 c0 -9 5 -16 10 -16 6 0 10 4 10 9 0 6 -4 13 -10 16 -5 3
-10 -1 -10 -9z"/>
<path d="M80 3349 c-13 -10 -13 -10 1 -6 8 3 21 -3 27 -14 11 -16 9 -19 -8
-19 -11 0 -23 -7 -26 -15 -4 -9 -16 -13 -34 -11 -18 2 -31 -2 -34 -10 -3 -8
-1 -14 5 -14 6 0 7 -4 4 -10 -3 -5 1 -10 9 -10 16 0 21 -12 9 -23 -3 -4 -12
-2 -20 4 -11 10 -13 -7 -13 -95 0 -68 5 -114 12 -126 11 -17 10 -22 -1 -30
-13 -7 -13 -11 0 -26 11 -14 11 -18 1 -22 -10 -3 -12 -85 -12 -388 1 -294 4
-383 13 -378 8 5 8 3 0 -7 -17 -17 -17 -69 0 -69 9 0 9 -2 0 -8 -9 -6 -12 -69
-12 -244 0 -214 2 -237 17 -241 16 -4 16 -5 0 -6 -17 -1 -18 -27 -18 -390 l0
-388 40 7 c22 4 40 5 40 1 0 -3 4 -1 8 5 10 16 72 29 72 14 0 -6 -7 -13 -15
-16 -8 -4 -15 -10 -15 -15 0 -4 15 -2 34 6 30 13 37 13 49 1 8 -9 19 -11 27
-6 8 5 18 6 22 4 4 -3 8 0 8 5 0 6 5 11 11 11 5 0 7 -5 3 -12 -5 -7 -3 -8 6
-3 7 5 40 9 73 11 32 1 61 5 65 8 5 6 -14 8 -105 8 -54 0 -70 11 -31 21 12 4
26 1 30 -6 5 -9 15 -8 42 1 19 7 55 12 80 11 25 -2 49 0 52 4 4 4 -13 7 -37 8
-39 0 -41 1 -20 10 14 5 30 8 37 5 8 -3 11 1 7 10 -3 7 -17 14 -31 14 -32 0
-26 7 10 12 15 1 27 -1 27 -5 0 -21 69 -67 101 -67 36 0 5 -19 -35 -21 -30 -2
-30 -2 5 -9 19 -4 27 -8 18 -9 -10 0 -18 -8 -18 -16 0 -13 -14 -15 -82 -13
-58 2 -82 -1 -85 -9 -3 -8 5 -13 19 -14 19 -1 20 -2 4 -6 -12 -3 -25 2 -32 12
-7 9 -18 14 -24 10 -7 -4 -35 -7 -64 -7 -39 0 -45 -2 -26 -8 20 -7 17 -8 -18
-7 -24 0 -47 -5 -51 -11 -3 -6 -18 -15 -33 -21 -21 -8 -28 -7 -32 5 -4 10 -13
13 -31 8 -14 -3 -25 -2 -25 4 0 5 -12 7 -27 4 -25 -5 -25 -6 -8 -13 16 -6 17
-8 3 -8 -9 -1 -19 -7 -21 -13 -3 -8 -6 -6 -6 5 -1 9 -5 17 -11 17 -15 0 -12
-87 2 -93 10 -4 10 -6 1 -6 -24 -2 -13 -17 14 -19 14 -1 29 -5 32 -8 9 -9 -20
-22 -40 -17 -18 5 -19 -5 -19 -291 l0 -296 178 0 177 1 70 81 c127 148 196
212 281 261 6 3 -4 -33 -22 -81 -18 -49 -35 -118 -39 -157 -4 -38 -9 -78 -11
-87 -5 -17 14 -18 303 -18 l308 0 -4 51 c-2 37 1 55 15 70 17 18 16 21 -11 76
-27 52 -29 65 -30 172 0 128 23 256 54 300 11 14 38 40 61 56 71 51 75 57 55
71 -15 11 -14 13 12 16 34 4 58 46 48 86 -5 20 -8 23 -16 11 -5 -7 -9 -10 -9
-4 0 5 -7 -1 -16 -13 -8 -12 -20 -22 -26 -22 -16 0 31 48 54 56 13 4 16 10 10
17 -13 17 -21 67 -11 67 5 0 10 -9 10 -20 2 -22 5 -39 9 -42 1 -2 4 -12 6 -23
6 -37 10 -50 18 -64 6 -10 5 -12 -2 -7 -8 5 -12 -1 -12 -14 0 -12 4 -19 8 -16
4 2 8 -7 9 -22 2 -26 1 -26 -7 -4 -8 19 -12 21 -28 11 -32 -20 -44 -50 -51
-129 -7 -86 -1 -139 25 -196 9 -21 18 -41 18 -44 13 -51 212 -305 299 -382
l66 -58 328 0 329 0 70 72 c142 145 286 347 343 481 27 64 48 168 62 319 12
130 7 201 -14 228 -7 9 -27 26 -44 39 -40 27 -46 7 -10 -30 47 -49 60 -94 53
-191 -3 -49 -9 -94 -12 -100 -4 -6 -6 -38 -5 -70 1 -32 -1 -63 -5 -70 -4 -6
-8 -24 -10 -41 -1 -16 -7 -34 -14 -40 -9 -9 -11 -9 -7 -1 4 7 -3 14 -15 17
-19 5 -20 8 -7 24 12 14 9 14 -13 -2 -15 -11 -32 -30 -38 -41 -8 -14 -19 -20
-30 -17 -10 3 -27 0 -39 -6 -13 -8 -21 -8 -21 -2 0 6 -7 8 -15 5 -15 -6 -22
11 -7 19 4 2 1 2 -5 1 -7 -2 -13 1 -13 6 0 6 -5 10 -11 10 -8 0 -7 -5 1 -15
16 -19 5 -32 -13 -17 -8 7 -18 8 -23 4 -4 -4 -2 2 6 12 12 16 12 18 1 11 -11
-6 -13 -3 -9 13 4 16 2 19 -10 15 -9 -4 -13 -2 -9 4 4 6 3 23 -3 38 -7 19 -7
31 0 40 8 9 6 14 -4 18 -21 8 -57 -3 -49 -16 3 -6 1 -7 -5 -3 -21 13 -13 24
23 30 22 5 32 11 29 20 -3 7 6 21 20 30 25 16 39 65 15 50 -8 -4 -9 0 -4 15 5
15 2 21 -9 21 -13 0 -12 4 4 20 18 18 24 33 21 53 -1 6 13 11 30 9 3 -1 6 5 6
13 0 8 -5 11 -10 8 -6 -4 -7 -1 -1 8 5 8 9 17 10 22 1 4 3 10 4 15 1 4 1 18 0
31 -1 16 2 21 12 17 7 -4 5 -1 -4 6 -15 11 -15 13 4 30 17 14 18 18 5 18 -14
0 -14 4 1 39 13 31 19 36 24 23 5 -13 7 -11 7 8 1 14 8 50 16 80 15 55 36 163
40 210 1 19 7 25 23 24 17 -1 21 3 17 20 -2 11 -4 29 -4 39 -1 11 -5 15 -13
11 -8 -5 -9 -2 -5 9 4 12 1 17 -11 17 -13 0 -14 2 -4 8 7 5 10 16 6 25 -8 21
-9 21 -40 1 -31 -21 -41 -12 -21 19 10 16 12 28 6 34 -6 6 -7 25 -1 49 12 55
8 114 -9 125 -17 10 -54 -12 -54 -32 0 -8 -8 -13 -18 -11 -9 2 -17 -1 -17 -5
0 -4 -15 -8 -32 -7 -18 1 -36 -3 -40 -9 -3 -6 -12 -12 -20 -13 -7 -1 -30 -5
-50 -9 -23 -4 -38 -3 -38 3 0 5 -10 7 -22 5 -15 -3 -45 10 -88 38 -36 24 -67
44 -70 44 -3 1 -18 7 -33 13 -15 7 -39 15 -52 18 -23 6 -23 5 -13 -35 12 -48
-3 -81 -29 -59 -11 9 -13 9 -11 -1 4 -19 -41 -35 -48 -17 -6 15 -94 21 -94 7
0 -21 -126 -35 -199 -21 -35 6 -58 6 -66 0 -13 -11 -67 -3 -76 11 -3 5 -2 31
2 57 4 26 5 49 3 51 -2 2 -4 -1 -4 -8 0 -7 -4 -10 -10 -6 -12 8 -71 -18 -88
-38 -8 -9 -21 -13 -29 -10 -10 4 -14 2 -10 -4 3 -5 -12 -20 -33 -32 -22 -12
-40 -25 -40 -29 0 -8 -63 -52 -74 -52 -4 0 -4 5 0 12 5 7 3 8 -7 3 -7 -5 -23
-9 -34 -10 -54 -3 -63 -7 -74 -31 -6 -14 -9 -29 -6 -34 3 -5 0 -12 -6 -15 -5
-4 -8 -13 -5 -21 9 -23 -4 -16 -15 9 -9 21 -9 21 -4 -3 2 -14 5 -33 5 -44 0
-12 5 -16 15 -13 11 5 12 1 5 -18 -6 -15 -5 -25 1 -27 5 -2 11 -27 14 -55 3
-39 0 -51 -10 -47 -7 3 -12 11 -11 17 1 18 -23 113 -52 202 -14 44 -27 83 -28
88 -1 4 -3 10 -4 15 -1 4 -2 10 -2 13 1 4 -7 5 -18 2 -28 -7 -32 -31 -10 -53
27 -27 26 -34 -17 -69 -35 -29 -82 -43 -68 -22 3 5 1 12 -5 16 -5 3 -10 23
-10 43 0 20 -6 60 -14 87 -7 28 -11 65 -8 83 3 26 1 32 -14 33 -16 0 -17 1 -3
7 12 5 14 13 8 30 -5 12 -13 22 -20 22 -6 0 -8 7 -5 16 6 17 -21 111 -35 120
-14 8 -10 24 6 24 8 0 14 -3 13 -7 0 -5 1 -15 4 -23 3 -8 12 -33 20 -55 8 -22
18 -40 23 -40 6 0 13 31 17 68 7 74 14 90 28 67 5 -8 12 -12 15 -8 3 3 -8 22
-26 42 -17 20 -34 34 -37 31 -3 -2 -12 0 -19 7 -17 14 -33 -4 -33 -39 0 -14
-6 -23 -16 -23 -8 0 -13 -4 -9 -9 3 -5 -6 -18 -20 -29 -14 -11 -25 -25 -25
-31 0 -6 -7 -8 -16 -4 -11 4 -12 8 -4 13 6 4 12 11 13 16 1 5 6 8 12 6 5 -2 5
2 -2 9 -9 9 -15 8 -28 -5 -9 -9 -22 -13 -28 -9 -8 4 -7 1 1 -9 11 -13 8 -16
-17 -20 -18 -3 -28 0 -24 6 4 6 -1 7 -13 2 -21 -8 -24 -9 -42 -7 -9 1 -11 8
-7 21 7 23 6 24 -32 9 -15 -5 -24 -7 -21 -3 4 3 -3 15 -15 25 -12 10 -17 18
-10 19 6 0 13 -4 15 -10 2 -5 8 2 15 15 8 19 8 25 0 25 -25 0 -41 -20 -42 -52
-1 -28 -4 -33 -28 -35 -19 -1 -27 3 -27 15 0 14 -2 14 -9 3 -5 -8 -8 -22 -6
-32 3 -12 -1 -16 -11 -12 -8 3 -13 12 -10 20 4 9 2 11 -6 7 -7 -5 -9 1 -6 19
4 19 0 27 -14 30 -19 5 -26 27 -8 27 6 0 10 -5 10 -11 0 -5 3 -8 7 -6 5 3 13
-1 20 -8 10 -11 10 -15 0 -18 -9 -4 -9 -6 0 -6 7 -1 20 11 29 25 12 17 23 24
36 21 11 -3 22 1 25 9 3 8 11 14 19 14 8 0 14 4 14 9 0 14 -26 21 -37 10 -7
-7 -12 -3 -16 10 -4 18 -1 19 24 14 18 -3 29 -1 29 5 0 6 7 9 16 5 13 -5 13
-7 2 -14 -10 -7 -10 -9 0 -9 6 0 12 -9 12 -20 0 -22 15 -27 26 -9 3 6 16 8 28
5 11 -2 29 1 39 8 16 12 16 14 1 20 -23 9 -31 7 -15 -3 8 -5 9 -11 3 -15 -5
-3 -13 1 -16 9 -3 9 1 18 9 21 18 7 45 -13 45 -32 0 -8 5 -14 10 -14 6 0 10 5
10 10 0 6 9 10 19 10 21 0 36 -26 21 -35 -6 -4 -10 -11 -10 -16 0 -6 7 -3 16
6 9 8 24 13 33 10 12 -4 16 2 16 25 1 18 -4 29 -10 26 -6 -2 -20 3 -30 11 -19
14 -18 15 11 11 26 -3 30 -1 26 14 -2 10 1 18 8 18 7 0 10 7 6 15 -3 9 1 16 9
16 8 1 20 2 26 3 7 0 15 10 20 21 7 18 8 17 8 -5 1 -14 8 -36 17 -48 8 -12 13
-26 10 -31 -4 -5 -3 -11 2 -13 4 -1 18 -18 31 -36 23 -32 44 -35 39 -4 -1 10
2 24 7 32 6 8 10 69 10 135 0 77 5 128 13 143 7 12 10 22 6 22 -3 0 -1 7 6 15
14 17 5 69 -10 60 -6 -3 -10 4 -11 17 0 13 -3 17 -6 11 -2 -7 -9 -13 -14 -13
-6 0 -7 6 -4 13 4 6 0 4 -8 -5 -19 -24 -22 -23 -25 12 -2 22 2 30 13 30 9 0
14 -4 11 -8 -2 -4 4 -8 14 -9 12 -1 20 7 23 22 2 14 0 22 -4 19 -5 -3 -9 -11
-9 -19 0 -10 -5 -11 -24 -2 -18 9 -22 15 -14 24 6 7 7 13 4 13 -4 0 0 8 10 18
16 15 16 17 1 20 -13 3 -15 12 -11 45 4 31 2 38 -5 27 -10 -13 -11 -13 -11 0
-1 12 -3 11 -11 -3 -21 -35 -40 -89 -30 -82 6 3 11 -1 11 -11 0 -14 2 -15 17
-3 15 12 16 12 8 -1 -5 -8 -8 -22 -7 -31 2 -9 -4 -19 -13 -23 -12 -4 -14 0 -9
18 3 13 1 27 -5 31 -14 8 -33 -42 -26 -66 4 -11 2 -19 -5 -19 -6 0 -8 -10 -4
-25 4 -15 2 -25 -5 -25 -7 0 -8 -8 -1 -24 8 -23 5 -36 -11 -36 -4 0 -7 51 -6
113 0 62 -3 119 -7 126 -5 8 1 22 15 38 l24 26 -22 -12 c-28 -14 -29 -7 -3 26
11 14 17 30 13 36 -4 6 -1 7 7 2 10 -6 12 -4 7 8 -3 9 -2 19 3 22 16 10 12 61
-5 75 -12 10 -13 15 -4 20 20 13 -2 32 -30 26 -17 -4 -21 -3 -13 2 11 7 10 10
-3 16 -18 7 -38 -1 -31 -12 2 -4 -7 -8 -21 -8 -31 -2 -41 -13 -24 -24 8 -4 12
-17 8 -29 -3 -12 -2 -21 2 -21 4 0 8 -7 8 -15 0 -17 -9 -19 -23 -5 -7 7 -21 7
-43 -1 -24 -9 -29 -14 -19 -21 8 -5 2 -6 -17 -2 -16 4 -39 15 -50 25 -16 14
-28 16 -56 10 -30 -7 -38 -5 -48 10 -6 11 -20 19 -31 19 -25 0 -71 21 -65 30
6 9 -92 23 -106 15 -13 -9 -75 45 -71 62 2 7 -3 13 -9 13 -7 0 1 11 17 25 28
24 51 28 47 7 -1 -5 5 -8 15 -6 23 6 51 -13 35 -24 -9 -6 -7 -11 7 -19 14 -10
21 -9 29 1 7 8 10 18 9 24 -3 10 1 12 28 12 10 0 14 -6 11 -14 -7 -17 37 -56
61 -55 10 0 12 3 4 6 -6 2 -10 9 -7 14 3 4 -6 11 -20 15 -14 3 -25 10 -25 15
0 12 17 11 25 -1 9 -15 35 -12 35 4 0 8 9 21 20 29 11 8 17 17 13 20 -3 4 3 7
15 7 12 0 22 5 22 11 0 5 -4 8 -9 5 -4 -3 -17 1 -27 9 -10 8 -35 15 -54 15
-19 1 -29 4 -22 7 6 2 9 10 6 15 -4 6 -2 8 4 4 6 -3 13 -2 16 3 3 5 -6 11 -21
14 -20 4 -36 -2 -60 -21 -28 -24 -47 -62 -23 -47 6 3 10 1 10 -4 0 -14 -17
-14 -25 -1 -3 5 -12 7 -20 4 -12 -5 -39 27 -40 48 0 16 -39 52 -43 40 -2 -7
-13 -12 -23 -12 -11 0 -17 4 -14 10 8 13 -27 0 -40 -15 -17 -20 -45 -26 -45
-10 0 8 5 15 10 15 6 0 10 7 10 16 0 14 -2 14 -15 0 -8 -8 -15 -22 -15 -30 0
-9 -5 -16 -11 -16 -5 0 -7 5 -3 12 4 7 3 8 -5 4 -9 -6 -9 -11 0 -22 9 -11 7
-14 -10 -14 -17 0 -21 -4 -16 -19 3 -11 1 -22 -5 -26 -9 -5 -11 -1 -10 20 1
12 -30 36 -39 30 -5 -3 -12 -1 -16 4 -3 5 3 14 12 20 17 10 17 10 1 11 -24 0
-41 33 -25 49 7 7 8 12 2 11 -35 -7 -37 3 -6 27 31 25 32 27 15 40 -10 7 -14
13 -8 13 5 0 2 5 -6 10 -19 12 -22 12 -40 -1z m6 -137 c-15 -3 -16 -6 -5 -12
7 -5 10 -12 6 -17 -5 -4 -12 -1 -17 7 -11 18 7 43 24 33 7 -5 4 -9 -8 -11z
m-34 -62 c-12 -11 -17 -15 -12 -8 6 7 10 21 10 32 0 16 3 17 12 8 10 -10 7
-17 -10 -32z m368 -5 c7 -8 9 -15 4 -15 -5 0 -2 -5 6 -10 9 -6 10 -10 3 -10
-6 0 -15 5 -18 10 -5 8 -11 7 -21 -1 -8 -6 -14 -8 -14 -5 0 4 -7 0 -16 -9 -13
-13 -19 -13 -32 -3 -13 11 -15 10 -9 -4 9 -24 -36 -35 -79 -19 -19 7 -39 9
-45 5 -6 -3 -3 5 6 20 18 27 35 27 35 -1 0 -10 6 -13 16 -9 9 3 20 6 25 6 5 0
4 6 -3 14 -7 8 -17 11 -22 8 -5 -3 -6 0 -1 7 4 8 11 9 16 4 11 -11 69 -4 69 8
0 5 9 9 20 9 11 0 20 -4 20 -10 0 -5 5 -10 11 -10 6 0 9 7 5 15 -3 8 -2 15 3
15 5 0 14 -7 21 -15z m-240 -26 c0 -4 -7 -9 -15 -13 -8 -3 -15 -15 -15 -26 0
-15 -8 -22 -30 -26 -16 -4 -30 -12 -31 -18 -1 -6 -4 0 -8 14 -4 15 -3 28 3 33
7 5 5 12 -6 21 -10 7 -18 17 -18 22 0 4 5 3 12 -4 18 -18 32 -14 17 5 -13 15
-12 16 9 11 12 -4 22 -2 22 2 0 5 14 3 30 -3 17 -6 30 -14 30 -18z m432 -1
c-7 -7 -12 -8 -12 -2 0 14 12 26 19 19 2 -3 -1 -11 -7 -17z m-432 -28 c0 -5
-5 -10 -11 -10 -5 0 -7 5 -4 10 3 6 8 10 11 10 2 0 4 -4 4 -10z m127 -69 c25
-37 22 -51 -8 -51 -48 0 -70 39 -45 78 11 19 28 10 53 -27z m-167 14 c0 -7
-30 -13 -34 -7 -3 4 4 9 15 9 10 1 19 0 19 -2z m40 -52 c0 -8 -9 -9 -32 -2
-18 5 -45 7 -60 3 -17 -3 -28 -1 -28 5 0 10 27 16 57 12 6 -1 14 3 18 9 7 12
45 -10 45 -27z m200 -9 c0 -8 -4 -12 -10 -9 -5 3 -10 10 -10 16 0 5 5 9 10 9
6 0 10 -7 10 -16z m-266 -15 c-8 -14 -24 -10 -24 6 0 9 6 12 15 9 8 -4 12 -10
9 -15z m346 1 c0 -5 -2 -10 -4 -10 -3 0 -8 5 -11 10 -3 6 -1 10 4 10 6 0 11
-4 11 -10z m-100 -20 c0 -5 -9 -14 -20 -20 -11 -6 -20 -8 -20 -5 0 12 5 20 13
18 4 -2 7 2 7 7 0 6 5 10 10 10 6 0 10 -4 10 -10z m100 -28 c0 -5 -11 -12 -25
-14 -21 -4 -25 -1 -25 18 0 12 6 24 12 26 14 5 38 -15 38 -30z m-350 -6 c0 -3
-4 -8 -10 -11 -5 -3 -10 -1 -10 4 0 6 5 11 10 11 6 0 10 -2 10 -4z m37 -2 c-3
-3 -12 -4 -19 -1 -8 3 -5 6 6 6 11 1 17 -2 13 -5z m148 -24 c3 -5 -1 -10 -9
-10 -9 0 -16 5 -16 10 0 6 4 10 9 10 6 0 13 -4 16 -10z m50 0 c3 -5 -1 -10
-10 -10 -9 0 -13 5 -10 10 3 6 8 10 10 10 2 0 7 -4 10 -10z m-195 -10 c0 -5
-7 -10 -16 -10 -8 0 -12 5 -9 10 3 6 10 10 16 10 5 0 9 -4 9 -10z m-85 -10 c3
-5 1 -10 -4 -10 -6 0 -11 5 -11 10 0 6 2 10 4 10 3 0 8 -4 11 -10z m205 -31
c0 -5 -7 -9 -15 -9 -9 0 -12 6 -9 15 6 15 24 11 24 -6z m-29 -20 c16 -8 18
-13 8 -25 -13 -16 -19 -17 -37 -6 -7 5 -10 16 -6 25 7 20 9 20 35 6z m-54 -35
c-3 -3 -12 -4 -19 -1 -8 3 -5 6 6 6 11 1 17 -2 13 -5z m73 -19 c-14 -8 -32
-14 -40 -14 -19 -1 30 27 50 28 8 0 4 -6 -10 -14z m260 6 c0 -6 -4 -13 -10
-16 -5 -3 -10 1 -10 9 0 9 5 16 10 16 6 0 10 -4 10 -9z m-286 -62 c-3 -5 -10
-7 -15 -3 -5 3 -7 10 -3 15 3 5 10 7 15 3 5 -3 7 -10 3 -15z m773 -71 c-3 -8
-6 -5 -6 6 -1 11 2 17 5 13 3 -3 4 -12 1 -19z m-210 6 c-3 -3 -12 -4 -19 -1
-8 3 -5 6 6 6 11 1 17 -2 13 -5z m-212 -34 c-3 -5 -11 -10 -16 -10 -6 0 -7 5
-4 10 3 6 11 10 16 10 6 0 7 -4 4 -10z m525 -30 c0 -5 -5 -10 -11 -10 -5 0 -7
5 -4 10 3 6 8 10 11 10 2 0 4 -4 4 -10z m-606 -52 c-3 -4 -12 -8 -20 -8 -8 0
-13 4 -10 8 3 5 12 9 20 9 8 0 13 -4 10 -9z m-54 -22 c0 -8 -7 -16 -15 -20
-12 -4 -13 -2 -2 14 14 24 17 25 17 6z m383 -203 c-7 -2 -19 -2 -25 0 -7 3 -2
5 12 5 14 0 19 -2 13 -5z m-178 -41 c-3 -3 -11 0 -18 7 -9 10 -8 11 6 5 10 -3
15 -9 12 -12z m-348 -14 c-5 -21 -5 -21 7 -6 10 14 15 15 26 5 9 -9 11 -9 6 0
-3 6 -1 15 6 19 7 4 10 4 6 -1 -4 -4 -3 -14 3 -22 9 -10 8 -13 0 -13 -7 0 -9
-4 -6 -10 3 -5 21 -10 38 -10 22 0 28 3 19 9 -10 6 -7 10 13 15 14 4 30 4 35
1 6 -4 10 -1 10 5 0 7 7 10 15 6 8 -3 15 -1 15 4 0 6 3 10 8 10 4 0 7 -16 8
-35 1 -39 0 -39 -26 -25 -16 8 -18 7 -14 -4 3 -8 1 -17 -5 -21 -6 -3 -11 0
-11 8 0 8 -7 20 -15 27 -10 9 -15 9 -15 1 0 -6 5 -11 11 -11 6 0 9 -5 7 -11
-2 -6 -8 -10 -13 -9 -5 1 -12 -7 -16 -17 -6 -15 -8 -15 -8 -2 -1 22 -19 35
-59 42 -29 6 -32 5 -23 -12 10 -19 6 -31 -12 -31 -5 0 -6 7 -3 16 3 8 2 13 -3
9 -5 -3 -17 3 -27 12 -17 17 -18 17 -11 0 4 -11 1 -24 -7 -33 -19 -18 -30 -18
-23 0 3 8 1 16 -5 18 -6 2 1 16 16 31 14 15 26 29 26 32 -1 21 2 25 16 25 12
0 15 -6 11 -22z m-88 -4 c10 -9 -35 -3 -49 6 -11 8 -7 9 15 4 17 -4 32 -8 34
-10z m606 -14 c3 -5 1 -10 -4 -10 -6 0 -11 5 -11 10 0 6 2 10 4 10 3 0 8 -4
11 -10z m-105 -10 c0 -5 -2 -10 -4 -10 -3 0 -8 5 -11 10 -3 6 -1 10 4 10 6 0
11 -4 11 -10z m-144 -26 c-3 -19 -36 -41 -36 -24 0 5 5 10 10 10 6 0 9 3 9 8
-2 14 1 22 10 22 5 0 8 -7 7 -16z m-408 -35 c19 -23 20 -29 8 -29 -9 0 -19 0
-23 -1 -5 0 -11 10 -14 23 -3 13 -11 22 -18 20 -7 -1 -10 2 -6 8 11 17 29 10
53 -21z m37 1 c-3 -5 -10 -10 -16 -10 -5 0 -9 5 -9 10 0 6 7 10 16 10 8 0 12
-4 9 -10z m160 0 c-3 -5 1 -10 9 -10 9 0 16 -4 16 -10 0 -5 -9 -10 -21 -10
-11 0 -17 5 -14 10 3 6 1 10 -6 10 -6 0 -9 -8 -7 -18 5 -17 2 -17 -18 -8 -13
6 -26 17 -29 25 -4 10 -2 11 7 3 9 -7 20 -6 38 3 30 17 33 18 25 5z m115 -22
c0 -6 7 -19 16 -29 10 -11 12 -19 5 -24 -6 -3 -14 1 -17 9 -3 9 -12 16 -20 16
-16 0 -16 2 -8 24 7 19 24 21 24 4z m-52 -15 c-12 -15 -22 -18 -14 -4 4 5 0
11 -6 14 -7 3 -3 4 9 4 17 -1 19 -4 11 -14z m-174 -45 c-3 -4 -9 -8 -15 -8 -5
0 -9 4 -9 8 0 5 7 9 15 9 8 0 12 -4 9 -9z m-99 -39 c11 -16 1 -19 -13 -3 -7 8
-8 14 -3 14 5 0 13 -5 16 -11z m702 -5 c3 -7 10 -11 17 -8 6 3 2 -3 -9 -13
-12 -10 -24 -27 -28 -37 -7 -18 -9 -18 -24 -3 -13 13 -14 19 -4 31 7 9 11 22
8 29 -3 8 3 14 15 14 10 1 22 -5 25 -13z m-752 -4 c-3 -5 -11 -10 -16 -10 -6
0 -7 5 -4 10 3 6 11 10 16 10 6 0 7 -4 4 -10z m188 3 c-7 -2 -21 -2 -30 0 -10
3 -4 5 12 5 17 0 24 -2 18 -5z m61 -2 c3 -5 -5 -8 -19 -7 -14 0 -25 4 -25 9 0
10 38 9 44 -2z m581 -11 c3 -5 -1 -10 -9 -10 -9 0 -16 5 -16 10 0 6 4 10 9 10
6 0 13 -4 16 -10z m-765 -15 c-14 -17 -30 -20 -30 -6 0 5 8 12 18 14 9 3 19 5
21 6 2 0 -2 -6 -9 -14z m747 -20 c0 -8 -4 -15 -9 -15 -4 0 -8 7 -8 15 0 8 4
15 8 15 5 0 9 -7 9 -15z m-677 -70 c0 -2 -7 -5 -15 -9 -9 -3 -15 0 -15 9 0 9
6 12 15 9 8 -4 15 -7 15 -9z m1984 -99 c20 8 39 -22 28 -43 -10 -18 -2 -55 11
-54 4 1 7 -2 8 -6 1 -13 21 -33 31 -33 6 0 5 7 -2 15 -20 24 -5 18 16 -7 10
-12 14 -18 7 -15 -6 4 -14 1 -17 -5 -3 -10 -9 -8 -19 5 -15 18 -16 18 -36 1
-16 -14 -18 -21 -8 -33 6 -9 2 -8 -11 3 -19 16 -22 17 -22 3 0 -8 -3 -22 -6
-30 -4 -12 3 -14 37 -10 26 3 39 1 35 -5 -3 -5 -68 -10 -153 -10 -148 -1 -148
-1 -123 18 23 18 73 30 138 34 15 1 35 6 46 12 16 9 16 14 6 34 -8 15 -8 20
-1 16 7 -4 11 1 11 13 0 11 8 25 18 30 23 14 6 14 -19 1 -17 -10 -19 -7 -19
20 0 16 5 30 10 30 6 0 9 3 9 8 -3 15 3 26 7 15 3 -7 11 -10 18 -7z m-573
-174 c0 10 2 10 6 0 2 -6 9 -10 14 -6 5 3 9 1 9 -5 0 -5 11 -8 25 -6 14 1 28
-2 31 -6 3 -5 13 -5 23 1 10 5 21 7 23 4 3 -2 16 -7 28 -9 12 -2 25 -6 27 -9
7 -7 -7 -27 -16 -22 -3 2 -47 -1 -96 -9 -93 -13 -103 -11 -118 29 -5 12 -13
16 -25 12 -10 -4 -7 2 8 13 18 14 29 17 42 10 13 -7 18 -6 19 3z m1085 -29
c-10 -10 -19 5 -10 18 6 11 8 11 12 0 2 -7 1 -15 -2 -18z m-2236 5 c0 -4 -7
-8 -15 -8 -8 0 -15 4 -15 8 0 5 7 9 15 9 8 0 15 -4 15 -9z m-330 -13 c0 -8 -4
-15 -10 -15 -5 0 -10 7 -10 15 0 8 5 15 10 15 6 0 10 -7 10 -15z m1795 -13
c-3 -3 -11 0 -18 7 -9 10 -8 11 6 5 10 -3 15 -9 12 -12z m-30 -2 c4 -6 -6 -10
-22 -10 -22 0 -25 2 -13 10 19 12 27 12 35 0z m-740 -9 c10 -17 -12 -21 -25
-6 -10 12 -10 15 3 15 9 0 18 -4 22 -9z m-101 -60 c4 -5 -3 -7 -14 -4 -23 6
-26 13 -6 13 8 0 17 -4 20 -9z m937 -17 c14 -13 20 -13 38 -2 17 11 23 10 37
-4 15 -15 18 -14 35 3 25 25 39 16 39 -26 0 -40 -16 -53 -37 -32 -14 14 -19
12 -49 -17 -30 -29 -39 -32 -81 -30 -31 2 -52 9 -60 20 -11 15 -13 16 -13 2 0
-21 -59 -30 -86 -13 -11 7 -32 11 -47 8 -19 -4 -29 0 -33 11 -4 11 -13 14 -30
10 -21 -5 -24 -3 -24 21 0 24 3 26 24 21 17 -4 28 -1 34 10 10 18 52 11 52 -9
0 -6 7 -1 16 11 20 29 49 28 79 -3 14 -13 25 -19 25 -13 0 17 31 48 48 48 9 0
23 -7 33 -16z m371 0 c16 -16 18 -16 24 0 8 22 21 20 27 -5 3 -12 0 -22 -9
-26 -9 -3 -12 -13 -9 -24 4 -12 1 -21 -9 -25 -9 -3 -13 -10 -10 -15 3 -5 -2
-12 -10 -15 -9 -3 -16 -13 -16 -21 0 -7 -16 -39 -35 -69 -19 -30 -34 -60 -32
-67 1 -6 -3 -11 -10 -10 -7 2 -10 -3 -7 -11 4 -11 13 -12 35 -6 26 8 28 7 19
-10 -8 -15 -6 -17 13 -13 22 6 22 6 -2 -21 -15 -15 -19 -26 -12 -26 11 0 11
-3 1 -15 -7 -8 -17 -12 -23 -8 -5 3 -7 2 -4 -4 8 -12 -40 -79 -54 -75 -5 1
-12 -5 -15 -13 -4 -8 -10 -15 -16 -15 -5 0 -6 6 -2 13 5 9 4 9 -6 0 -10 -10
-11 -15 -1 -27 10 -12 9 -14 -11 -12 -13 1 -29 5 -35 9 -6 4 -15 2 -19 -4 -5
-8 -3 -9 6 -4 9 5 11 4 6 -4 -4 -6 -12 -9 -17 -5 -5 3 -21 -2 -34 -10 -14 -9
-25 -12 -25 -6 0 8 -6 7 -20 0 -14 -8 -20 -8 -20 0 0 7 -6 8 -17 1 -11 -6 -24
-6 -36 0 -10 6 -28 7 -40 3 -12 -5 -25 -7 -29 -6 -5 1 -8 -3 -8 -9 0 -8 -5 -8
-15 1 -8 7 -45 13 -82 15 -38 1 -79 7 -92 14 -14 8 -21 9 -17 2 12 -19 -9 -12
-33 10 -19 18 -25 19 -32 8 -6 -10 -9 -10 -9 -1 0 21 -3 27 -18 38 -9 6 -13
18 -9 28 4 9 2 16 -3 16 -5 0 -6 8 -3 17 5 12 2 15 -10 10 -14 -5 -16 -2 -11
18 4 15 1 32 -6 40 -9 11 -9 15 -1 15 9 0 9 5 1 20 -7 14 -7 20 0 20 18 0 11
35 -10 50 -11 8 -20 20 -20 26 0 7 -7 14 -15 18 -8 3 -15 15 -15 26 0 11 -5
20 -11 20 -5 0 -7 5 -4 10 3 6 2 10 -3 10 -5 0 -8 21 -7 48 1 46 2 47 35 48
22 0 52 -12 87 -34 29 -19 67 -36 85 -38 46 -4 75 -11 107 -27 28 -14 165 -22
157 -9 -2 4 17 8 42 8 78 3 120 9 115 17 -2 4 3 7 11 7 10 0 16 -9 16 -25 0
-14 4 -25 9 -25 20 0 41 13 41 25 0 7 18 25 41 41 23 15 36 30 29 32 -17 6 50
72 74 72 11 0 28 -7 38 -16z m-1262 0 c0 -8 -19 -13 -24 -6 -3 5 1 9 9 9 8 0
15 -2 15 -3z m60 -95 c0 -5 0 -12 -1 -15 0 -4 5 -11 13 -15 9 -6 7 -9 -9 -9
-13 0 -23 5 -23 10 0 6 5 10 12 10 6 0 3 9 -7 20 -17 18 -17 20 -2 14 9 -3 17
-10 17 -15z m-334 -27 c-4 -3 -12 0 -19 7 -9 9 -9 14 3 21 11 7 16 5 18 -6 2
-9 1 -18 -2 -22z m407 8 c9 -17 11 -32 6 -36 -5 -3 -9 -4 -9 -2 0 2 -4 18 -9
36 -12 40 -7 41 12 2z m-759 -22 c-3 -4 2 -5 10 -2 8 3 17 12 20 20 3 8 11 14
18 14 9 0 9 -3 1 -11 -6 -6 -9 -17 -7 -23 3 -7 -7 -13 -23 -14 -16 -1 -29 -7
-31 -12 -9 -24 -19 -7 -17 28 4 49 3 49 19 27 8 -11 12 -23 10 -27z m-117 -54
c-9 -9 -28 6 -21 18 4 6 10 6 17 -1 6 -6 8 -13 4 -17z m348 16 c3 -5 1 -10 -4
-10 -6 0 -11 5 -11 10 0 6 2 10 4 10 3 0 8 -4 11 -10z m555 -15 c7 -9 10 -18
7 -22 -4 -3 -9 2 -13 11 -3 9 -10 13 -15 10 -5 -3 -9 0 -9 5 0 16 16 13 30 -4z
m-660 -14 c0 -3 3 -16 6 -28 7 -27 -3 -29 -31 -7 -17 13 -18 16 -5 24 10 7 11
10 3 10 -7 0 -13 4 -13 9 0 10 40 2 40 -8z m230 1 c0 -13 -12 -22 -22 -16 -10
6 -1 24 13 24 5 0 9 -4 9 -8z m-740 -6 c0 -3 -4 -8 -10 -11 -5 -3 -10 -1 -10
4 0 6 5 11 10 11 6 0 10 -2 10 -4z m985 -26 c13 -6 15 -9 5 -9 -8 0 -22 4 -30
9 -18 12 -2 12 25 0z m138 3 c-7 -2 -21 -2 -30 0 -10 3 -4 5 12 5 17 0 24 -2
18 -5z m-816 -19 c-3 -3 -12 -4 -19 -1 -8 3 -5 6 6 6 11 1 17 -2 13 -5z m33
-19 c14 -19 14 -19 -2 -6 -10 7 -18 18 -18 24 0 6 1 8 3 6 1 -2 9 -13 17 -24z
m77 10 c7 -8 1 -11 -24 -12 -26 -1 -31 2 -24 11 13 16 34 16 48 1z m63 3 c0
-4 10 -9 23 -9 18 -1 18 -2 4 -6 -24 -6 -69 5 -63 16 7 10 36 10 36 -1z m-430
-19 c0 -6 -4 -7 -10 -4 -5 3 -10 11 -10 16 0 6 5 7 10 4 6 -3 10 -11 10 -16z
m1056 -6 c-10 -10 -19 5 -10 18 6 11 8 11 12 0 2 -7 1 -15 -2 -18z m-966 -28
c0 -5 -5 -3 -10 5 -5 8 -10 20 -10 25 0 6 5 3 10 -5 5 -8 10 -19 10 -25z m384
9 c6 -15 4 -15 -11 -3 -10 7 -20 15 -22 16 -2 2 3 3 11 3 9 0 19 -7 22 -16z
m-296 -49 c-3 -3 -9 2 -12 12 -6 14 -5 15 5 6 7 -7 10 -15 7 -18z m309 -1 c-1
-2 -18 -5 -38 -7 -19 -2 -41 -7 -49 -12 -21 -13 -60 -17 -60 -7 0 22 37 39 78
37 23 -2 42 2 42 7 0 6 7 5 15 -2 9 -7 14 -14 12 -16z m653 2 c0 -2 3 -12 7
-22 5 -13 3 -16 -10 -11 -11 4 -18 -1 -22 -14 -4 -10 -14 -19 -23 -20 -9 0 -2
-6 16 -13 18 -6 30 -15 26 -19 -4 -4 4 -7 17 -7 18 0 21 -2 10 -9 -9 -6 -22
-6 -32 0 -23 12 -52 12 -44 -1 3 -5 2 -10 -4 -10 -5 0 -11 4 -13 9 -1 4 -21
11 -43 14 -28 5 -34 4 -20 -3 21 -9 21 -9 -12 -16 -17 -3 -20 0 -16 16 3 11
13 21 22 22 9 0 21 2 26 3 6 2 16 3 23 4 6 0 12 10 12 21 0 11 7 20 15 20 8 0
20 9 27 20 11 17 38 28 38 16z m-50 -13 c-8 -2 -22 -7 -30 -10 -8 -3 -28 -7
-45 -8 -26 -3 -24 -1 10 10 22 7 49 13 60 13 13 0 15 -1 5 -5z m-117 -30 c-7
-2 -19 -2 -25 0 -7 3 -2 5 12 5 14 0 19 -2 13 -5z m-183 -13 c0 -5 -4 -10 -10
-10 -5 0 -10 5 -10 10 0 6 5 10 10 10 6 0 10 -4 10 -10z m120 6 c0 -2 -11 -6
-25 -8 -13 -3 -22 -1 -19 3 5 9 44 13 44 5z m290 -12 c0 -14 -3 -14 -15 -4 -8
7 -15 14 -15 16 0 2 7 4 15 4 8 0 15 -7 15 -16z m40 -31 c-1 -14 -4 -13 -15 7
-19 33 -19 45 0 26 8 -8 15 -23 15 -33z m-830 13 c0 -2 -7 -7 -16 -10 -8 -3
-12 -2 -9 4 6 10 25 14 25 6z m765 -6 c-3 -5 -12 -10 -18 -10 -7 0 -6 4 3 10
19 12 23 12 15 0z m-406 -26 c2 -2 -7 -4 -22 -4 -14 0 -29 5 -32 10 -6 10 42
4 54 -6z m174 -5 c4 -16 3 -18 -9 -8 -16 13 -19 29 -5 29 5 0 11 -9 14 -21z
m-103 1 c0 -5 5 -10 11 -10 5 0 8 4 5 8 -10 16 56 3 68 -13 11 -15 23 -17 82
-12 l69 6 -25 -20 -25 -21 27 6 c35 8 44 -8 13 -22 -15 -7 -25 -8 -25 -2 0 5
-26 9 -57 9 -32 -1 -80 2 -107 6 -39 6 -48 5 -44 -6 3 -8 16 -13 29 -12 22 2
22 2 4 -6 -27 -13 -58 -13 -50 -1 3 6 -3 10 -14 10 -11 0 -23 5 -26 10 -13 21
-32 10 -28 -17 2 -18 0 -22 -4 -13 -9 16 -25 18 -61 6 -12 -4 -20 -12 -17 -17
8 -12 -22 -11 -46 1 -14 8 -25 7 -39 -3 -11 -8 -17 -17 -13 -20 3 -4 -1 -7
-10 -7 -9 0 -17 -4 -17 -9 0 -5 -11 -8 -24 -7 -28 1 -24 16 5 16 10 0 19 5 19
10 0 13 -16 13 -40 0 -13 -7 -21 -7 -25 0 -4 6 -13 7 -23 1 -28 -14 -102 -22
-102 -11 0 5 7 10 15 10 9 0 12 6 8 17 -5 12 -2 15 10 10 9 -3 17 -2 17 3 0 6
5 10 11 10 5 0 7 -4 4 -10 -10 -17 11 -11 38 10 22 18 27 18 40 6 12 -12 19
-12 38 -2 28 14 99 18 99 5 0 -4 -7 -5 -17 -2 -10 4 -14 2 -10 -4 4 -6 16 -13
27 -16 11 -3 18 -1 14 4 -3 5 3 9 13 9 11 0 23 4 29 9 5 5 18 11 29 14 13 3 8
6 -15 7 -19 1 -38 2 -41 2 -3 -1 -6 5 -6 13 0 8 3 12 6 10 4 -2 36 1 71 6 36
5 73 10 83 10 12 0 17 5 13 15 -3 8 -1 14 4 14 6 0 10 -4 10 -10z m-284 -35
c-11 -8 -27 -15 -35 -15 -9 1 -2 7 14 15 39 18 44 18 21 0z m629 -15 c-27 -12
-43 -12 -25 0 8 5 22 9 30 9 10 0 8 -3 -5 -9z m-732 -17 c-7 -2 -19 -2 -25 0
-7 3 -2 5 12 5 14 0 19 -2 13 -5z m72 -3 c3 -5 -1 -10 -10 -10 -9 0 -13 5 -10
10 3 6 8 10 10 10 2 0 7 -4 10 -10z m612 4 c-3 -3 -12 -4 -19 -1 -8 3 -5 6 6
6 11 1 17 -2 13 -5z m-777 -34 c0 -13 -11 -13 -30 0 -12 8 -11 10 8 10 12 0
22 -4 22 -10z m-130 -42 c0 -6 -6 -5 -15 2 -8 7 -15 14 -15 16 0 2 7 1 15 -2
8 -4 15 -11 15 -16z m679 12 c-6 -4 -20 -5 -30 -3 -10 3 -19 0 -19 -6 0 -6 -8
-11 -17 -11 -25 0 -94 -25 -88 -32 3 -2 -2 -5 -10 -5 -8 0 -12 4 -9 8 2 4 -2
10 -8 12 -8 3 -6 6 5 6 9 1 17 6 17 11 0 6 22 10 49 10 28 0 52 4 56 9 3 5 19
9 36 9 17 -1 25 -4 18 -8z m-284 -10 c-3 -5 -12 -10 -18 -10 -7 0 -6 4 3 10
19 12 23 12 15 0z m95 0 c0 -5 -7 -10 -16 -10 -8 0 -12 5 -9 10 3 6 10 10 16
10 5 0 9 -4 9 -10z m290 2 c0 -13 -39 -32 -55 -26 -12 5 -13 9 -4 20 12 15 59
20 59 6z m-805 -23 c-3 -4 -16 -9 -30 -11 -13 -3 -22 -2 -20 3 3 4 -1 9 -7 12
-7 2 4 4 24 4 20 -1 35 -4 33 -8z m205 1 c0 -5 -8 -10 -17 -10 -15 0 -16 2 -3
10 19 12 20 12 20 0z m-307 -7 c-7 -2 -19 -2 -25 0 -7 3 -2 5 12 5 14 0 19 -2
13 -5z m-39 -38 c-4 -8 -10 -15 -16 -15 -5 0 -6 5 -2 12 5 7 2 9 -8 6 -8 -4
-21 -2 -29 3 -10 6 -3 9 23 9 29 0 36 -3 32 -15z m471 -15 c-3 -5 -12 -7 -20
-3 -21 7 -19 13 6 13 11 0 18 -4 14 -10z m225 -36 c0 -14 -12 -19 -23 -8 -9 9
4 35 14 28 5 -3 9 -12 9 -20z m185 6 c-3 -5 -11 -10 -16 -10 -6 0 -7 5 -4 10
3 6 11 10 16 10 6 0 7 -4 4 -10z m-520 -20 c-3 -5 -14 -10 -23 -9 -14 0 -13 2
3 9 27 11 27 11 20 0z m-229 -18 c1 -6 2 -16 3 -22 0 -5 9 -10 19 -11 19 -1
-37 -23 -86 -34 -21 -4 -32 -3 -32 4 0 6 15 11 34 11 23 0 36 6 42 18 12 27
11 36 -6 44 -11 6 -10 7 5 5 11 -1 21 -8 21 -15z m788 -3 c-3 -5 -10 -7 -15
-3 -5 3 -7 10 -3 15 3 5 10 7 15 3 5 -3 7 -10 3 -15z m323 -5 c-3 -3 -12 -4
-19 -1 -8 3 -5 6 6 6 11 1 17 -2 13 -5z m-1029 -14 c-10 -6 -25 -7 -40 -1 -20
9 -18 10 17 10 31 0 36 -2 23 -9z m1006 -27 c-4 -15 -7 -33 -7 -41 0 -8 -4 -9
-10 -3 -6 6 -5 21 3 40 15 38 23 40 14 4z m57 -120 c0 -60 -5 -83 -17 -83 -20
0 -34 64 -28 133 8 92 15 99 31 27 7 -36 14 -71 14 -77z m-1386 117 c-3 -5
-15 -10 -26 -10 -11 0 -17 5 -14 10 3 6 15 10 26 10 11 0 17 -4 14 -10z m2391
-28 c-4 -3 -14 2 -24 12 -16 18 -16 18 6 6 13 -6 21 -14 18 -18z m-2326 8 c0
-5 -2 -10 -4 -10 -3 0 -8 5 -11 10 -3 6 -1 10 4 10 6 0 11 -4 11 -10z m44 -5
c11 -9 14 -15 7 -15 -7 0 -19 7 -27 15 -20 19 -5 19 20 0z m-124 1 c0 -2 -9
-6 -20 -9 -11 -3 -18 -1 -14 4 5 9 34 13 34 5z m75 -26 c-11 -5 -31 -8 -45 -8
-23 0 -22 1 5 8 42 11 65 11 40 0z m906 -26 c-17 -21 -21 -23 -21 -9 0 10 8
24 17 31 26 19 28 9 4 -22z m-981 6 c12 -8 11 -10 -7 -10 -13 0 -23 5 -23 10
0 13 11 13 30 0z m1325 -29 c0 -22 -3 -34 -7 -28 -10 16 -10 67 0 67 4 0 7
-18 7 -39z m-613 -1 c-15 -26 -40 -46 -48 -37 -5 5 47 67 56 67 5 0 1 -13 -8
-30z m-272 -5 c11 -13 9 -15 -13 -13 -16 1 -23 7 -20 15 7 17 18 16 33 -2z
m430 -5 c0 -10 -9 -24 -19 -30 -17 -9 -19 -7 -16 10 8 41 35 57 35 20z m-199
-157 c-8 -15 -10 -15 -11 -2 0 17 10 32 18 25 2 -3 -1 -13 -7 -23z"/>
<path d="M1960 1298 c0 -10 5 -18 10 -18 6 0 10 -4 10 -9 0 -5 -9 -7 -21 -4
-12 3 -18 11 -15 19 4 10 -3 14 -23 14 -22 0 -30 -6 -35 -25 -4 -14 -13 -25
-21 -25 -8 0 -15 -5 -15 -10 0 -6 -15 -8 -38 -4 -27 4 -41 2 -50 -8 -18 -22 7
-49 46 -50 23 -1 31 -5 28 -15 -3 -7 -1 -13 4 -13 6 0 10 4 10 9 0 4 18 8 40
7 22 -1 40 -4 40 -7 0 -4 15 -3 34 1 18 4 41 3 50 -2 11 -6 16 -5 16 5 0 10 9
13 27 11 15 -1 33 2 40 7 7 6 16 9 20 6 4 -2 16 4 26 13 18 18 18 19 0 27 -10
5 -44 9 -76 8 l-58 -2 31 18 c17 11 36 19 42 19 7 0 4 6 -7 14 -25 17 -84 26
-92 13 -3 -5 -9 -3 -14 4 -7 11 -9 10 -9 -3z"/>
<path d="M2191 1241 c-10 -6 -9 -10 3 -14 8 -3 18 -2 21 3 8 13 -9 20 -24 11z"/>
<path d="M520 3326 c0 -2 9 -6 20 -9 11 -3 18 -1 14 4 -5 9 -34 13 -34 5z"/>
<path d="M340 3304 c0 -7 52 -25 57 -20 2 2 -10 8 -26 14 -17 6 -31 9 -31 6z"/>
<path d="M688 3303 c7 -3 16 -2 19 1 4 3 -2 6 -13 5 -11 0 -14 -3 -6 -6z"/>
<path d="M1635 3300 c-3 -5 -1 -10 4 -10 6 0 11 5 11 10 0 6 -2 10 -4 10 -3 0
-8 -4 -11 -10z"/>
<path d="M208 3283 c7 -3 16 -2 19 1 4 3 -2 6 -13 5 -11 0 -14 -3 -6 -6z"/>
<path d="M690 3281 c0 -7 -4 -10 -8 -7 -4 2 -8 -4 -8 -14 0 -10 8 -21 18 -23
15 -4 17 -1 12 21 -8 31 -14 41 -14 23z"/>
<path d="M325 3270 c-4 -6 -11 -7 -17 -4 -7 5 -8 2 -4 -5 5 -7 11 -10 14 -7 3
3 11 1 18 -5 9 -8 11 -5 7 10 -6 24 -9 25 -18 11z"/>
<path d="M447 3219 c7 -7 15 -10 18 -7 3 3 -2 9 -12 12 -14 6 -15 5 -6 -5z"/>
<path d="M690 3190 c27 -21 40 -25 40 -12 0 4 -15 13 -32 20 l-33 12 25 -20z"/>
<path d="M630 3176 c0 -2 7 -7 16 -10 8 -3 12 -2 9 4 -6 10 -25 14 -25 6z"/>
<path d="M920 3099 c13 -6 28 -15 32 -22 4 -6 10 -8 14 -4 12 12 -18 37 -45
36 l-26 0 25 -10z"/>
<path d="M3417 3053 c-4 -3 -7 -11 -7 -17 0 -6 5 -5 12 2 6 6 9 14 7 17 -3 3
-9 2 -12 -2z"/>
<path d="M833 3012 c-7 -4 -9 -13 -4 -21 6 -10 10 -9 15 5 8 20 4 25 -11 16z"/>
<path d="M3560 3010 c0 -5 4 -10 9 -10 5 0 12 -11 15 -24 6 -25 54 -44 76 -31
11 7 -31 55 -43 48 -4 -2 -10 3 -13 11 -7 17 -44 22 -44 6z"/>
<path d="M818 2963 c7 -3 16 -2 19 1 4 3 -2 6 -13 5 -11 0 -14 -3 -6 -6z"/>
<path d="M783 2935 c0 -8 4 -12 9 -9 4 3 8 9 8 15 0 5 -4 9 -8 9 -5 0 -9 -7
-9 -15z"/>
<path d="M816 2925 c-3 -9 0 -15 8 -15 7 0 13 7 13 15 0 8 -4 15 -8 15 -4 0
-9 -7 -13 -15z"/>
<path d="M3600 2930 c0 -5 5 -10 11 -10 5 0 7 5 4 10 -3 6 -8 10 -11 10 -2 0
-4 -4 -4 -10z"/>
<path d="M3683 2927 c3 -10 2 -17 -3 -17 -5 0 -7 -7 -4 -15 3 -8 9 -14 12 -13
4 0 16 0 27 -1 17 -1 18 -3 5 -11 -8 -5 -10 -10 -5 -11 33 -3 107 -30 118 -44
6 -6 10 -6 14 3 7 18 23 15 16 -3 -3 -9 -2 -15 3 -14 17 4 44 -13 44 -28 0
-13 -3 -13 -15 -3 -9 7 -52 14 -102 16 -49 1 -98 5 -111 8 -43 9 -97 31 -110
44 -8 7 -18 10 -23 7 -5 -4 -9 -1 -9 6 0 7 -9 9 -22 6 -12 -3 -29 -2 -39 4
-15 7 -17 6 -13 -6 5 -11 2 -14 -12 -8 -12 4 -15 3 -10 -6 5 -7 14 -10 22 -7
18 7 44 -3 44 -18 0 -6 21 -12 50 -14 28 -2 72 -14 99 -28 27 -13 55 -24 63
-24 8 0 20 -17 26 -37 11 -38 11 -38 -8 -15 -22 27 -30 28 -30 3 0 -31 -19
-35 -30 -7 -5 14 -14 26 -20 26 -15 0 -12 -11 7 -32 15 -17 15 -18 -5 -18 -14
0 -22 7 -24 22 -4 31 -26 34 -34 3 -5 -20 -1 -31 15 -47 12 -11 21 -21 19 -23
-7 -7 -67 8 -63 16 9 13 -28 27 -50 19 -19 -7 -19 -8 -2 -15 14 -6 15 -10 6
-21 -15 -18 5 -44 33 -44 11 0 26 -6 34 -14 19 -20 18 -47 -1 -40 -8 4 -22 1
-30 -6 -8 -6 -20 -10 -27 -7 -8 4 -7 6 5 6 9 1 17 6 17 12 0 7 -14 10 -35 7
-19 -2 -37 1 -39 7 -2 5 -5 3 -5 -7 -1 -11 -7 -15 -19 -11 -10 2 -24 -3 -31
-11 -8 -9 -19 -16 -25 -16 -6 0 -1 8 12 18 l23 18 -22 19 c-12 11 -19 15 -16
8 5 -7 0 -9 -15 -5 -14 3 -19 2 -14 -6 5 -8 0 -12 -14 -12 -17 0 -19 -2 -8
-14 7 -8 16 -12 21 -9 4 2 7 0 7 -5 0 -15 -33 -24 -41 -11 -4 7 -17 9 -29 6
-17 -4 -19 -3 -10 8 12 14 10 15 -62 30 -10 2 -21 -1 -24 -6 -3 -5 -13 -5 -24
1 -24 13 -30 13 -30 -1 0 -5 5 -7 10 -4 6 3 10 -1 10 -10 0 -13 4 -14 20 -5
28 15 72 9 78 -10 3 -8 1 -12 -2 -8 -7 6 -22 -5 -72 -53 -16 -15 -24 -18 -29
-9 -4 6 -16 10 -26 7 -11 -3 -17 -1 -13 4 3 5 -3 9 -12 9 -16 0 -15 2 2 21 19
22 19 22 -6 14 -35 -11 -60 -12 -98 -4 -19 4 -35 3 -39 -4 -4 -6 -1 -7 6 -3 8
5 12 3 10 -5 -3 -29 2 -38 21 -36 11 1 20 7 20 14 0 15 16 17 25 3 4 -6 10 -8
15 -5 5 3 14 -5 21 -17 6 -13 8 -20 4 -16 -12 11 -35 -11 -29 -27 6 -15 34 -9
46 9 5 8 8 7 8 -1 0 -7 -9 -18 -20 -25 -22 -14 -28 -64 -8 -70 7 -3 -6 -13
-30 -23 -41 -18 -42 -20 -35 -54 5 -20 7 -69 6 -109 -1 -63 1 -72 13 -61 8 6
14 8 14 4 0 -4 6 -3 13 3 7 6 29 7 52 3 l40 -7 -58 -8 c-32 -4 -56 -10 -53
-13 3 -3 -4 -13 -15 -22 -28 -23 -33 -78 -9 -91 23 -12 43 -13 36 -1 -3 4 6 6
19 3 42 -8 36 -17 -11 -17 -42 0 -74 -20 -80 -50 -1 -5 -9 -40 -17 -77 -8 -38
-12 -68 -8 -69 3 0 -3 -4 -14 -9 -35 -15 -74 -11 -96 11 -27 27 -43 20 -47
-20 -2 -21 0 -31 7 -27 5 4 9 -2 8 -14 -1 -11 -4 -20 -8 -20 -14 0 -19 -34 -7
-42 17 -10 31 -10 24 1 -3 5 2 12 11 15 20 8 37 -15 20 -26 -8 -5 -4 -8 11 -8
12 0 22 -5 22 -11 0 -7 -12 -10 -29 -7 -17 2 -28 1 -26 -3 3 -4 -5 -9 -16 -12
-13 -4 -18 -10 -14 -17 6 -9 9 -9 15 0 5 9 9 9 14 1 4 -6 0 -14 -8 -17 -18 -7
-22 -34 -6 -34 6 0 10 -7 10 -15 0 -8 -5 -15 -11 -15 -5 0 -7 5 -4 10 8 12 -5
13 -24 1 -13 -8 -12 -27 3 -138 10 -70 19 -129 19 -129 13 -12 86 -44 99 -44
10 0 42 -11 72 -24 30 -13 57 -22 60 -19 9 9 105 -95 112 -120 6 -27 0 -434
-8 -457 -3 -8 -8 -28 -13 -45 -4 -16 -14 -38 -21 -49 -11 -15 -10 -23 2 -42
16 -24 16 -31 -2 -292 l-7 -102 337 0 336 0 0 25 c0 32 24 42 45 21 20 -20 25
-20 25 -2 0 8 -15 29 -34 46 -30 29 -34 42 -27 83 0 4 8 7 16 7 19 0 19 16 1
27 -14 8 -19 48 -17 121 l1 34 44 -26 c50 -29 57 -31 54 -14 -4 18 -22 37 -30
31 -5 -2 -8 0 -8 6 0 5 -12 12 -27 15 l-28 6 0 245 c0 135 3 245 6 245 3 0 44
-20 92 -44 l87 -45 0 304 c0 233 -3 304 -12 308 -10 4 -10 6 0 6 9 1 12 88 11
404 -1 221 -3 394 -6 385 -2 -10 -14 -18 -25 -18 -13 0 -18 -5 -15 -14 3 -7 0
-19 -6 -25 -8 -8 -6 -11 7 -11 15 0 16 -2 2 -15 -20 -21 -26 -19 -26 10 0 14
4 25 10 25 5 0 7 7 4 15 -4 8 1 17 10 21 9 3 16 12 16 20 0 8 7 14 15 14 8 0
15 7 15 15 0 8 -9 15 -20 15 -14 0 -20 6 -19 23 1 17 2 18 6 4 8 -31 27 -13
30 29 3 39 3 39 -11 14 -9 -14 -15 -20 -16 -14 0 5 7 19 15 30 20 26 20 84 0
84 -8 0 -15 -4 -15 -10 0 -5 -4 -10 -9 -10 -5 0 -7 9 -4 20 3 11 14 20 24 20
14 0 19 7 19 26 0 24 -2 25 -32 18 -18 -3 -39 -14 -46 -23 -10 -12 -15 -13
-18 -3 -7 15 -34 16 -34 1 0 -5 -4 -7 -10 -4 -9 6 -14 -8 -11 -27 0 -5 -5 -8
-12 -8 -9 0 -11 12 -9 40 3 31 8 40 23 40 25 0 24 16 -1 23 -11 3 -20 11 -20
17 0 10 4 9 15 0 12 -10 19 -10 27 -2 9 9 8 12 -4 12 -9 0 -19 4 -22 9 -3 5 5
8 19 7 14 0 25 -4 25 -7 0 -6 23 -16 58 -24 7 -2 12 7 12 22 0 20 4 23 20 18
18 -6 19 0 19 134 l1 140 -33 7 c-17 3 -42 17 -53 29 -12 13 -32 23 -45 23
-35 1 -163 27 -179 37 -10 6 -12 4 -7 -8z m257 -221 c0 -3 -4 -8 -10 -11 -5
-3 -10 -1 -10 4 0 6 5 11 10 11 6 0 10 -2 10 -4z m-210 -29 c0 -7 -6 -22 -14
-33 -15 -20 -16 -5 -1 29 9 20 15 22 15 4z m30 -11 c0 -2 -7 -9 -15 -16 -13
-11 -14 -10 -9 4 5 14 24 23 24 12z m-100 -10 c0 -3 -4 -8 -10 -11 -5 -3 -10
-1 -10 4 0 6 5 11 10 11 6 0 10 -2 10 -4z m-55 -46 c-3 -5 -11 -10 -16 -10 -6
0 -7 5 -4 10 3 6 11 10 16 10 6 0 7 -4 4 -10z m75 -30 c0 -5 9 -10 20 -10 23
0 25 -9 6 -35 -9 -13 -18 -16 -32 -10 -10 4 -25 7 -33 6 -9 -2 -12 3 -7 14 3
9 6 23 6 31 0 8 9 14 20 14 11 0 20 -4 20 -10z m-193 -102 c-8 -5 -5 -8 7 -8
39 0 5 -12 -38 -14 -37 -1 -46 2 -46 16 0 13 9 16 44 15 24 -1 39 -5 33 -9z
m73 -5 c0 -10 -4 -24 -9 -32 -12 -19 -24 3 -16 29 8 25 25 26 25 3z m-290 -13
c0 -5 -2 -10 -4 -10 -2 0 -12 -3 -22 -7 -16 -6 -17 -5 -4 10 17 19 30 22 30 7z
m102 -27 c-6 -2 -9 -10 -6 -15 4 -7 2 -8 -5 -4 -13 9 -5 26 12 25 9 0 8 -2 -1
-6z m540 -12 c14 -17 14 -20 2 -25 -8 -3 -13 -2 -10 3 3 5 -1 11 -9 15 -15 6
-21 26 -7 26 4 0 15 -9 24 -19z m-399 -11 c-3 -11 -13 -20 -22 -20 -31 0 -32
13 -4 26 16 7 29 13 30 13 0 1 -1 -8 -4 -19z m-253 -4 c0 -3 -4 -8 -10 -11 -5
-3 -10 -1 -10 4 0 6 5 11 10 11 6 0 10 -2 10 -4z m617 -40 c-9 -7 -17 -18 -17
-25 0 -16 -17 -14 -23 3 -4 9 3 16 19 20 13 4 24 12 24 18 0 6 3 8 7 4 5 -4 0
-13 -10 -20z m-447 5 c0 -12 -21 -19 -38 -13 -11 4 -11 6 0 13 17 11 38 11 38
0z m-252 -19 c6 -18 -15 -14 -22 4 -4 10 -1 14 6 12 6 -2 14 -10 16 -16z m368
-4 c-10 -6 -20 -7 -24 -3 -9 8 20 25 31 18 5 -3 2 -10 -7 -15z m183 -10 c-11
-22 -11 -22 17 2 16 14 23 18 17 10 -7 -8 -13 -23 -13 -34 0 -10 -3 -17 -6
-13 -3 3 -15 -3 -27 -14 -11 -10 -27 -19 -34 -19 -19 0 -16 -17 5 -30 14 -10
14 -11 0 -6 -10 3 -18 -2 -21 -13 -2 -10 -16 -20 -30 -23 -15 -3 -24 -1 -21 3
3 5 -3 9 -13 9 -14 0 -15 2 -4 9 23 15 -4 21 -53 12 -26 -5 -46 -5 -46 0 0 9
16 13 34 10 5 -1 27 5 48 14 22 8 37 12 34 7 -8 -13 29 -31 45 -21 12 7 12 9
-1 9 -11 1 -9 6 8 19 12 11 22 24 22 30 0 6 4 11 10 11 5 0 12 11 16 25 3 14
10 25 15 25 6 0 4 -10 -2 -22z m-354 2 c3 -5 1 -10 -4 -10 -6 0 -11 5 -11 10
0 6 2 10 4 10 3 0 8 -4 11 -10z m435 -4 c0 -2 -9 -6 -20 -9 -11 -3 -18 -1 -14
4 5 9 34 13 34 5z m-590 -27 c0 -5 -4 -7 -10 -4 -5 3 -10 0 -11 -7 0 -10 -2
-10 -6 0 -2 6 -9 12 -14 12 -6 0 -7 -5 -3 -12 4 -7 3 -8 -4 -4 -22 13 -12 26
18 26 17 0 30 -5 30 -11z m214 -4 c3 -8 2 -15 -3 -15 -5 0 -14 7 -21 15 -10
12 -10 15 3 15 8 0 17 -7 21 -15z m390 -6 c-3 -5 -1 -9 5 -9 5 0 12 8 14 18 3
11 5 8 6 -9 1 -22 -3 -26 -26 -23 -55 4 -59 5 -45 11 6 2 12 11 12 18 0 8 7
11 20 8 11 -3 17 -9 14 -14z m-324 1 c0 -5 -2 -10 -4 -10 -3 0 -8 5 -11 10 -3
6 -1 10 4 10 6 0 11 -4 11 -10z m30 -14 c0 -3 -4 -8 -10 -11 -5 -3 -10 -1 -10
4 0 6 5 11 10 11 6 0 10 -2 10 -4z m120 -11 c-7 -9 -15 -13 -19 -10 -3 3 1 10
9 15 21 14 24 12 10 -5z m98 -10 c-9 -20 -14 -23 -25 -13 -12 10 -11 14 9 24
13 8 24 13 25 14 2 0 -3 -11 -9 -25z m130 -17 c-2 -6 -10 -14 -16 -16 -7 -2
-10 2 -6 12 7 18 28 22 22 4z m-561 -5 c-11 -10 -58 -13 -52 -2 4 5 18 9 32 9
15 0 23 -3 20 -7z m167 -18 c-7 -18 -20 -19 -30 -3 -4 6 -3 8 4 4 6 -3 13 -2
17 4 9 15 15 12 9 -5z m300 -1 c3 -8 2 -12 -4 -9 -6 3 -10 10 -10 16 0 14 7
11 14 -7z m2 -26 c30 15 64 16 64 2 0 -5 -6 -7 -14 -4 -7 3 -16 -2 -20 -11 -4
-11 -12 -15 -22 -11 -20 8 -41 -4 -24 -14 6 -4 -4 -7 -22 -8 -17 0 -28 2 -23
6 14 10 12 36 -3 45 -7 5 -10 13 -6 18 3 6 14 0 25 -12 16 -19 23 -21 45 -11z
m-353 -10 c-2 -5 -15 -8 -29 -8 -16 0 -23 -4 -18 -11 4 -8 1 -8 -12 -2 -17 9
-41 10 -96 5 -20 -2 -28 -32 -13 -48 7 -8 18 -9 35 -2 40 16 72 20 65 8 -3 -5
-1 -10 6 -10 8 0 8 -4 -1 -15 -10 -12 -9 -16 4 -21 9 -3 16 -13 16 -21 0 -12
-2 -12 -16 1 -21 22 -45 21 -37 -1 6 -15 4 -16 -8 -6 -9 7 -19 9 -25 4 -5 -5
-29 -11 -53 -14 -24 -2 -47 -11 -52 -18 -5 -8 -9 -10 -9 -5 0 5 -7 3 -15 -4
-11 -9 -15 -9 -15 -1 0 20 64 51 104 51 22 0 36 3 33 7 -4 3 1 12 11 19 16 12
16 13 -3 14 -11 0 -31 -7 -43 -16 -13 -9 -26 -13 -29 -10 -3 3 2 8 11 12 9 3
16 11 16 16 0 10 -11 9 -55 -7 -13 -4 -12 -1 5 9 21 13 22 15 6 16 -11 0 -16
3 -13 7 4 3 2 12 -4 20 -9 10 -8 13 5 13 11 0 14 5 10 12 -5 7 -2 9 8 6 8 -4
20 -3 27 1 15 10 190 8 184 -1z m147 2 c-8 -5 -23 -10 -32 -10 -20 0 -25 -30
-5 -30 8 0 9 -3 1 -8 -6 -4 -13 -14 -16 -22 -4 -10 -8 -6 -13 12 -5 19 -11 25
-23 21 -29 -12 -1 17 31 31 39 17 81 21 57 6z m134 1 c3 -4 -3 -18 -13 -30
-16 -18 -20 -19 -30 -7 -10 11 -7 17 11 30 26 19 25 18 32 7z m-531 -8 c-10
-3 -10 -10 -1 -26 10 -20 10 -21 -5 -8 -22 18 -22 41 1 40 10 0 12 -3 5 -6z
m-58 -13 c3 -5 1 -10 -4 -10 -6 0 -11 5 -11 10 0 6 2 10 4 10 3 0 8 -4 11 -10z
m499 -5 c-17 -13 -17 -14 -1 -15 27 0 21 -30 -7 -30 -14 0 -28 -4 -31 -10 -3
-5 -2 -10 4 -10 16 0 41 -30 40 -48 0 -13 -3 -11 -11 6 -12 24 -23 28 -33 12
-3 -5 -12 -10 -18 -10 -9 0 -9 2 0 8 18 11 4 62 -16 56 -10 -4 -9 -1 4 7 11 7
22 15 25 19 7 10 43 29 54 30 6 0 1 -7 -10 -15z m296 12 c-10 -9 -102 -18 -97
-10 3 4 27 9 53 11 27 2 46 1 44 -1z m-450 -32 c6 -8 8 -20 4 -27 -5 -8 -1 -8
11 2 10 8 16 10 12 3 -4 -6 -3 -14 3 -18 19 -12 0 -26 -20 -15 -29 15 -35 12
-38 -17 -1 -16 -16 -41 -33 -58 -26 -25 -29 -26 -20 -7 7 12 16 22 21 22 6 0
10 7 10 15 0 8 -5 15 -12 15 -7 0 -5 5 4 13 22 17 32 54 17 63 -8 5 -10 3 -4
-7 5 -8 5 -11 0 -7 -4 4 -15 2 -23 -5 -13 -10 -14 -9 -4 10 18 34 52 42 72 18z
m250 -14 c0 -5 -10 -11 -22 -14 -22 -6 -22 -6 -4 8 23 17 26 18 26 6z m75 -11
c-3 -5 -14 -10 -23 -10 -15 0 -15 2 -2 10 20 13 33 13 25 0z m-655 -10 c0 -5
8 -10 18 -10 9 0 23 -4 30 -8 8 -5 -1 -8 -22 -8 -24 1 -36 6 -40 19 -2 9 0 17
5 17 5 0 9 -4 9 -10z m705 0 c-3 -5 -12 -10 -18 -10 -7 0 -6 4 3 10 19 12 23
12 15 0z m-429 -19 c-3 -5 -15 -7 -26 -4 -28 7 -25 13 6 13 14 0 23 -4 20 -9z
m381 -23 c-3 -8 -6 -5 -6 6 -1 11 2 17 5 13 3 -3 4 -12 1 -19z m37 6 c3 -8 2
-12 -4 -9 -6 3 -10 1 -10 -6 0 -7 -2 -10 -5 -7 -5 5 4 38 10 38 2 0 6 -7 9
-16z m-65 -18 c-2 -2 -15 -7 -29 -10 l-25 -7 25 15 c21 12 42 14 29 2z m-61
-21 c-3 -3 -9 2 -12 12 -6 14 -5 15 5 6 7 -7 10 -15 7 -18z m172 21 c0 -2 -7
-7 -16 -10 -8 -3 -12 -2 -9 4 6 10 25 14 25 6z m53 -17 c4 -3 -4 -11 -18 -17
-15 -7 -25 -8 -25 -2 0 6 7 10 15 10 9 0 12 6 8 18 -4 10 -3 13 3 7 5 -5 13
-12 17 -16z m-673 -21 c-19 -5 -40 -18 -48 -29 -7 -10 -19 -19 -25 -19 -7 0
-3 7 7 15 11 8 16 15 10 15 -5 1 2 7 16 15 14 8 36 14 50 14 21 -1 19 -2 -10
-11z m365 2 c-3 -5 -11 -10 -16 -10 -6 0 -7 5 -4 10 3 6 11 10 16 10 6 0 7 -4
4 -10z m-505 -52 c0 -7 -32 -12 -52 -9 -5 0 -8 -3 -8 -9 0 -5 -6 -10 -14 -10
-8 0 -13 8 -11 18 1 9 9 16 18 16 10 -1 14 5 12 18 -4 18 -3 18 26 1 16 -9 29
-21 29 -25z m193 25 c-7 -2 -21 -2 -30 0 -10 3 -4 5 12 5 17 0 24 -2 18 -5z
m327 -7 c0 -2 -7 -7 -16 -10 -8 -3 -12 -2 -9 4 6 10 25 14 25 6z m-333 -12
c-3 -3 -12 -4 -19 -1 -8 3 -5 6 6 6 11 1 17 -2 13 -5z m135 -14 c-12 -11 -24
-20 -28 -20 -4 0 1 9 11 20 10 11 23 20 28 20 6 0 1 -9 -11 -20z m79 -3 c-10
-9 -11 -8 -5 6 3 10 9 15 12 12 3 -3 0 -11 -7 -18z m449 15 c0 -5 -12 -14 -27
-21 -28 -13 -28 -13 -9 8 20 22 36 27 36 13z m-750 -22 c-20 -13 -30 -12 -30
1 0 5 4 8 9 4 5 -3 13 0 16 6 4 5 10 8 13 4 4 -3 0 -10 -8 -15z m-70 -10 c0
-5 -4 -10 -9 -10 -6 0 -13 5 -16 10 -3 6 1 10 9 10 9 0 16 -4 16 -10z m168
-30 c15 -1 15 -2 -1 -11 -20 -12 -60 -2 -51 12 3 6 13 8 21 5 8 -3 22 -6 31
-6z m92 6 c0 -2 -7 -7 -16 -10 -8 -3 -12 -2 -9 4 6 10 25 14 25 6z m420 -11
c-7 -8 -18 -15 -24 -15 -6 0 -2 7 8 15 25 19 32 19 16 0z m114 6 c8 -13 -31
-44 -45 -35 -9 5 -6 10 10 16 12 4 19 12 16 18 -3 5 -2 10 4 10 5 0 12 -4 15
-9z m-489 -19 c-3 -3 -11 0 -18 7 -9 10 -8 11 6 5 10 -3 15 -9 12 -12z m119 3
c-7 -16 -24 -21 -24 -6 0 8 7 13 27 20 1 1 0 -6 -3 -14z m-229 -14 c-3 -6 -11
-8 -17 -5 -6 4 -5 9 3 15 16 10 23 4 14 -10z m359 2 c21 21 27 22 20 2 -7 -16
-6 -16 -51 -20 -28 -2 -30 -1 -20 15 10 17 12 17 23 2 11 -15 13 -14 28 1z
m-253 -42 c-9 -2 -20 -10 -24 -17 -5 -8 -12 -12 -17 -9 -4 3 -10 -2 -14 -10
-8 -21 -23 -19 -29 5 -3 11 -1 18 3 15 5 -3 18 5 29 17 12 12 21 18 21 14 0
-4 8 0 17 10 16 15 17 15 24 -2 4 -13 1 -20 -10 -23z m-283 14 c9 -8 -12 -31
-29 -32 -20 -2 -20 -1 -4 11 17 13 17 14 -1 25 -17 11 -16 11 6 5 14 -3 26 -8
28 -9z m456 0 c-4 -8 -8 -15 -10 -15 -2 0 -4 7 -4 15 0 8 4 15 10 15 5 0 7 -7
4 -15z m-576 -9 c-7 -8 -15 -12 -17 -11 -5 6 10 25 20 25 5 0 4 -6 -3 -14z
m307 4 c3 -5 1 -10 -4 -10 -6 0 -11 5 -11 10 0 6 2 10 4 10 3 0 8 -4 11 -10z
m-95 -10 c0 -5 -5 -10 -11 -10 -5 0 -7 5 -4 10 3 6 8 10 11 10 2 0 4 -4 4 -10z
m65 1 c-3 -6 2 -14 11 -19 14 -8 12 -12 -16 -26 -39 -19 -66 -21 -76 -4 -4 6
-3 8 4 4 6 -3 13 3 17 14 3 11 15 20 25 20 10 0 22 5 25 10 3 6 8 10 11 10 3
0 3 -4 -1 -9z m-115 -16 c-14 -17 -40 -20 -40 -6 0 5 10 12 23 14 12 2 24 5
26 6 2 0 -2 -6 -9 -14z m15 -49 c7 3 16 0 21 -7 5 -9 2 -10 -10 -6 -10 4 -19
1 -22 -8 -4 -8 -10 -15 -16 -15 -5 0 -6 5 -2 12 5 8 2 9 -10 5 -12 -5 -16 -3
-13 5 2 7 -3 21 -12 32 -15 17 -13 17 18 -2 18 -11 39 -18 46 -16z m665 9 c0
-12 -19 -12 -23 0 -4 9 -1 12 9 8 7 -3 14 -7 14 -8z m-840 -15 c-8 -5 -17 -7
-19 -4 -3 3 1 9 9 14 8 5 17 7 19 4 3 -3 -1 -9 -9 -14z m917 14 c-3 -3 -12 -4
-19 -1 -8 3 -5 6 6 6 11 1 17 -2 13 -5z m-890 -57 c16 6 4 -39 -15 -54 -19
-16 -42 -17 -42 -2 0 5 6 7 13 3 9 -6 9 -4 -1 8 -10 13 -9 16 9 21 18 5 19 9
9 29 -9 19 -9 21 2 7 7 -9 18 -14 25 -12z m193 3 c0 -5 -4 -10 -10 -10 -5 0
-10 5 -10 10 0 6 5 10 10 10 6 0 10 -4 10 -10z m-94 -9 c-8 -12 20 -22 39 -15
8 4 15 1 15 -5 0 -6 -3 -10 -7 -10 -5 1 -10 1 -13 -1 -3 -1 -15 -3 -27 -6 -19
-3 -22 0 -19 19 6 29 5 27 12 27 3 0 3 -4 0 -9z m-62 -26 c-12 -9 -14 -14 -6
-15 7 0 10 -4 7 -10 -9 -14 -24 -12 -21 3 3 19 16 37 29 37 6 0 2 -7 -9 -15z
m377 -28 c-10 -9 -11 -8 -5 6 3 10 9 15 12 12 3 -3 0 -11 -7 -18z m-536 -15
c-3 -3 -11 0 -18 7 -9 10 -8 11 6 5 10 -3 15 -9 12 -12z m-53 -6 c7 4 8 2 4
-5 -9 -13 -26 -5 -25 12 0 9 2 8 6 -1 2 -6 10 -9 15 -6z m258 -15 c-8 -6 -18
-7 -22 -5 -4 3 -8 1 -8 -4 0 -5 -9 -12 -20 -15 -12 -3 -20 0 -20 7 0 20 11 26
49 26 26 0 32 -3 21 -9z m682 -30 c-4 -11 -7 -10 -13 5 -12 29 -10 36 5 22 7
-7 11 -19 8 -27z m-848 13 c9 -3 16 -15 16 -26 0 -16 5 -19 25 -16 14 3 25 1
25 -3 0 -5 -4 -9 -8 -9 -11 0 -55 -61 -55 -76 0 -9 -9 -9 -42 0 -38 12 -43 11
-58 -7 -12 -15 -20 -18 -28 -10 -8 8 -5 13 11 18 18 6 20 9 9 16 -12 7 -11 12
5 26 18 17 18 17 13 1 -5 -15 0 -18 28 -18 18 0 41 7 49 16 21 20 21 30 0 14
-8 -8 -14 -9 -13 -4 4 24 -2 45 -13 42 -21 -3 -59 13 -53 23 4 5 13 9 21 9 8
0 13 -4 9 -9 -3 -5 0 -13 6 -17 7 -4 9 -3 5 4 -3 6 2 15 11 21 22 13 18 12 37
5z m796 -25 c0 -6 -4 -7 -10 -4 -5 3 -10 11 -10 16 0 6 5 7 10 4 6 -3 10 -11
10 -16z m30 5 c0 -3 -7 -12 -15 -21 -8 -8 -12 -20 -8 -26 4 -7 0 -7 -9 1 -15
12 -15 15 0 32 17 18 32 25 32 14z m-114 -130 c-5 -14 -4 -15 9 -4 13 11 14
10 9 -4 -7 -19 -34 -22 -34 -3 0 13 9 27 18 27 2 0 1 -7 -2 -16z m272 -58 c-7
-8 -15 -12 -17 -11 -5 6 10 25 20 25 5 0 4 -6 -3 -14z m-181 -121 c0 -8 -4
-15 -9 -15 -4 0 -8 -9 -8 -20 0 -13 -7 -20 -20 -20 -13 0 -20 6 -19 18 0 10 3
12 6 5 2 -7 9 -13 14 -13 6 0 8 4 4 10 -6 9 15 50 26 50 3 0 6 -7 6 -15z
m-690 -2 c-9 -9 -58 -13 -53 -5 3 5 17 10 31 10 14 0 24 -2 22 -5z m27 -55
c-3 -13 -11 -24 -15 -26 -5 -2 -9 -14 -9 -27 0 -13 -5 -27 -10 -30 -6 -4 -10
-3 -9 2 1 4 1 19 0 32 -1 20 -3 22 -16 11 -13 -11 -13 -15 -3 -21 9 -6 7 -9
-8 -9 -28 0 -39 26 -13 33 10 3 19 10 19 17 0 6 -5 8 -12 4 -6 -4 -8 -3 -5 3
4 6 18 8 32 5 14 -2 25 0 25 7 0 6 -7 8 -17 4 -11 -4 -14 -3 -9 5 4 7 18 12
32 12 22 0 24 -3 18 -22z m618 -26 c-13 -2 -20 -8 -16 -14 4 -7 2 -8 -4 -4
-20 12 -3 34 21 28 l22 -7 -23 -3z m-32 -31 c0 -5 -7 -12 -16 -15 -14 -5 -15
-4 -4 9 14 17 20 19 20 6z"/>
<path d="M3230 2149 c0 -5 5 -7 10 -4 6 3 10 8 10 11 0 2 -4 4 -10 4 -5 0 -10
-5 -10 -11z"/>
<path d="M3305 1820 c-3 -5 -1 -10 4 -10 6 0 11 5 11 10 0 6 -2 10 -4 10 -3 0
-8 -4 -11 -10z"/>
<path d="M2968 1493 c7 -3 16 -2 19 1 4 3 -2 6 -13 5 -11 0 -14 -3 -6 -6z"/>
<path d="M3846 2925 c-3 -8 -1 -15 4 -15 13 0 22 18 11 24 -5 3 -11 -1 -15 -9z"/>
<path d="M3417 2923 c-10 -16 3 -43 20 -43 11 0 13 4 6 13 -6 6 -12 19 -15 27
-3 9 -7 10 -11 3z"/>
<path d="M1018 2893 c-13 -32 -11 -74 4 -88 8 -7 9 -6 4 2 -5 9 5 45 20 71 1
1 13 -2 28 -7 14 -6 26 -7 26 -2 0 5 3 18 7 28 6 17 6 17 -14 0 -20 -17 -21
-17 -26 3 -7 29 -36 25 -49 -7z"/>
<path d="M1066 2835 c-9 -26 -7 -32 5 -12 6 10 9 21 6 23 -2 3 -7 -2 -11 -11z"/>
<path d="M1090 2795 c0 -8 5 -15 10 -15 6 0 10 7 10 15 0 8 -4 15 -10 15 -5 0
-10 -7 -10 -15z"/>
<path d="M1105 2740 c-3 -5 -1 -10 4 -10 6 0 11 5 11 10 0 6 -2 10 -4 10 -3 0
-8 -4 -11 -10z"/>
<path d="M3507 2573 c-10 -9 -9 -23 1 -23 5 0 9 7 9 15 0 17 -1 18 -10 8z"/>
<path d="M3082 2518 c2 -6 10 -13 16 -14 7 -1 8 0 2 3 -5 2 -8 9 -4 14 3 5 0
9 -6 9 -7 0 -10 -5 -8 -12z"/>
<path d="M2308 2475 c-2 -2 -32 -5 -68 -7 -36 -2 -71 -8 -78 -12 -7 -4 -27 -7
-45 -6 -17 1 -34 1 -37 0 -3 -1 -21 -3 -40 -5 -74 -7 -134 -23 -145 -38 -16
-22 -62 -29 -69 -11 -3 7 -12 11 -21 8 -8 -4 -15 -1 -15 7 0 7 -3 9 -7 6 -3
-4 -12 -2 -19 4 -7 6 -30 13 -51 16 -58 7 -222 9 -211 2 5 -3 -19 -7 -54 -7
-74 -2 -88 -4 -108 -17 -8 -6 -40 -19 -70 -31 -66 -25 -81 -50 -86 -141 -4
-57 -2 -64 21 -79 26 -17 98 -37 90 -24 -2 4 7 5 20 2 13 -2 23 -9 22 -16 -1
-6 17 -14 43 -17 25 -3 35 -7 23 -7 -27 -2 -31 -22 -5 -22 9 0 46 5 82 11 36
5 88 12 117 14 53 4 117 33 167 74 9 7 16 10 16 6 0 -5 9 0 20 10 11 10 20 29
20 42 0 23 32 64 54 67 6 1 16 5 23 9 6 4 14 3 18 -3 4 -6 10 -8 15 -5 7 4 12
-8 18 -38 1 -4 8 -22 16 -41 8 -19 11 -37 8 -41 -4 -3 1 -3 11 0 9 4 31 -2 51
-14 18 -12 41 -18 50 -15 9 3 16 1 16 -5 0 -6 9 -11 19 -11 11 0 22 -4 25 -9
9 -15 48 -21 43 -7 -3 7 1 13 9 13 8 0 14 -3 14 -6 0 -3 10 -7 23 -7 12 -1 40
-3 62 -4 22 -2 67 3 100 10 50 11 56 14 35 20 -22 6 -19 8 19 15 25 4 51 14
59 21 7 8 29 14 48 14 20 0 37 6 40 14 3 8 15 11 30 8 14 -2 24 0 24 7 0 6 -7
11 -16 11 -11 0 -14 5 -9 18 10 23 9 29 -12 89 -10 29 -27 59 -38 67 -22 17
-60 21 -50 6 10 -17 -10 -11 -57 15 -24 13 -58 25 -76 27 -18 1 -32 5 -32 8 0
5 -47 10 -52 5z"/>
<path d="M2955 2430 c-3 -5 -1 -10 4 -10 6 0 11 5 11 10 0 6 -2 10 -4 10 -3 0
-8 -4 -11 -10z"/>
<path d="M2961 2262 c-52 -32 -107 -84 -109 -103 -6 -74 -2 -101 18 -133 12
-20 23 -36 25 -36 1 0 16 7 31 15 16 8 24 15 18 15 -6 0 -17 12 -24 28 -8 15
-22 36 -32 48 -18 20 -18 21 0 42 11 12 23 18 27 14 5 -4 5 -2 1 5 -3 6 -2 14
4 18 6 4 8 11 5 16 -4 5 0 9 8 9 19 0 48 -60 63 -130 l11 -55 9 85 c8 87 7
140 -4 171 -6 16 -11 15 -51 -9z"/>
<path d="M1066 1995 c-25 -25 -37 -83 -23 -113 l11 -27 4 36 c2 20 12 45 23
54 20 19 25 50 10 60 -5 3 -16 -2 -25 -10z"/>
<path d="M2775 1832 c-15 -11 -17 -32 -2 -26 8 3 14 11 14 19 0 8 -1 15 -1 15
-1 0 -5 -4 -11 -8z"/>
<path d="M1215 1670 c-3 -5 -1 -10 4 -10 6 0 11 5 11 10 0 6 -2 10 -4 10 -3 0
-8 -4 -11 -10z"/>
<path d="M2660 899 c0 -5 5 -7 10 -4 6 3 10 8 10 11 0 2 -4 4 -10 4 -5 0 -10
-5 -10 -11z"/>
<path d="M2626 875 c4 -8 11 -15 16 -15 6 0 5 6 -2 15 -7 8 -14 15 -16 15 -2
0 -1 -7 2 -15z"/>
<path d="M2640 840 c0 -5 5 -10 11 -10 5 0 7 5 4 10 -3 6 -8 10 -11 10 -2 0
-4 -4 -4 -10z"/>
<path d="M10 790 c-18 -12 -2 -12 25 0 13 6 15 9 5 9 -8 0 -22 -4 -30 -9z"/>
<path d="M160 790 c-19 -12 -2 -30 28 -29 26 0 26 1 5 9 -13 5 -23 12 -23 14
0 3 7 3 15 0 8 -4 15 -4 15 -1 0 10 -27 15 -40 7z"/>
<path d="M375 790 c4 -6 11 -8 16 -5 14 9 11 15 -7 15 -8 0 -12 -5 -9 -10z"/>
<path d="M23 763 c-13 -2 -23 -9 -23 -14 0 -6 4 -8 9 -5 5 4 28 7 51 8 22 1
43 5 46 10 5 8 -42 9 -83 1z"/>
<path d="M148 733 c7 -3 16 -2 19 1 4 3 -2 6 -13 5 -11 0 -14 -3 -6 -6z"/>
<path d="M3139 563 c-1 -16 -7 -41 -14 -62 -4 -13 -2 -21 5 -21 6 0 8 5 5 10
-3 6 -2 10 4 10 6 0 10 16 9 35 -1 31 -7 48 -9 28z"/>
<path d="M1226 365 c4 -78 10 -100 41 -162 33 -66 36 -76 31 -137 -5 -60 -4
-66 14 -66 10 0 18 6 17 12 -1 7 3 25 10 39 11 22 10 32 -8 67 -12 23 -21 46
-21 52 0 6 -11 28 -24 49 -14 22 -32 74 -40 117 -24 123 -25 125 -20 29z"/>
<path d="M3081 396 c-7 -8 -11 -19 -8 -23 2 -4 1 -17 -3 -28 -4 -12 -2 -31 7
-48 10 -20 11 -32 3 -47 -8 -16 -8 -20 2 -18 7 2 12 -3 11 -9 -2 -7 2 -13 8
-13 7 0 8 31 3 98 -4 53 -8 98 -9 100 -1 1 -8 -4 -14 -12z"/>
<path d="M1592 64 c-11 -12 -10 -14 3 -14 18 0 57 -20 67 -35 4 -5 17 -11 28
-11 19 -1 20 0 4 17 -9 10 -20 17 -23 14 -4 -2 -13 0 -21 6 -11 6 -11 9 -2 9
10 0 10 3 0 14 -8 9 -17 11 -25 5 -7 -6 -12 -6 -15 0 -1 5 -9 3 -16 -5z"/>
</g>
</svg>
